<svg xmlns="http://www.w3.org/2000/svg" baseProfile="tiny" overflow="visible" viewBox="0 0 125 121.7"><circle cx="63.4" cy="61.2" r="57.8" fill="#01a77d"/><g fill="#fff"><path d="M46.9 60.5h-.4c-1.9-.2-3.3-1.9-3.1-3.8.6-6.3 4.5-38 17.3-41.2 8.2-2 14.4 7.5 16.5 10.6 1.1 1.6.6 3.8-1 4.9s-3.8.6-4.9-1c-3.5-5.3-6.9-8.2-9-7.7-4.2 1-10 14.8-12 35.1-.2 1.7-1.7 3.1-3.4 3.1zm51.9-4.9c-.5 0-1-.1-1.4-.3-1.8-.8-2.6-2.9-1.8-4.6 2.6-5.8 3.2-10.2 1.7-11.7-3.1-3-17.8-.6-36.1 8.6-1.7.9-3.8.2-4.7-1.6-.9-1.7-.2-3.8 1.6-4.7.3-.2 8.3-4.1 17.4-7.1 13.4-4.5 22.2-4.5 26.7-.2 6.1 5.8 1.4 16.2-.1 19.6-.7 1.3-2 2-3.3 2zM88.2 89.5c-1.8 0-3.3-1.3-3.5-3.1-.2-1.9 1.1-3.7 3.1-3.9 6.3-.7 10.4-2.5 10.9-4.6 1-4.2-8.7-15.6-25.9-26.6-1.6-1-2.1-3.2-1.1-4.8s3.2-2.1 4.8-1.1c.3.2 7.8 5 15.1 11.3 10.7 9.3 15.3 16.7 13.9 22.8-1.9 8.2-13.2 9.5-16.9 10h-.4zm-25.9 18.1c-7.2 0-12.4-8.3-14.2-11.2-1-1.6-.5-3.8 1.1-4.8s3.8-.5 4.8 1.1c3.4 5.4 6.7 8.3 8.8 7.9 4.2-.9 10.3-14.5 12.9-34.8.2-1.9 2-3.3 3.9-3 1.9.2 3.3 2 3 3.9-.8 6.3-5.4 37.9-18.4 40.7-.5.1-1.2.2-1.9.2zm-25-18.1c-5.5 0-9.4-1.3-11.8-4-5.6-6.3-.1-16.3 1.6-19.5.9-1.7 3.1-2.3 4.7-1.4 1.7.9 2.3 3.1 1.4 4.7-3.1 5.6-4 9.9-2.6 11.5 2.9 3.2 17.7 1.9 36.7-5.7a3.57 3.57 0 0 1 4.6 1.9 3.57 3.57 0 0 1-1.9 4.6c-.3.1-8.6 3.5-17.9 5.8-5.9 1.4-10.8 2.1-14.8 2.1zm16.5-12.6c-.6 0-1.2-.2-1.8-.5-.3-.2-7.9-4.8-15.4-10.8-11-8.9-15.8-16.2-14.6-22.3 1.6-8.2 12.9-9.9 16.6-10.5 1.9-.3 3.7 1 4 2.9s-1 3.7-2.9 4c-6.3.9-10.3 2.8-10.7 4.9-1 4.3 9 15.3 26.6 25.8 1.7 1 2.2 3.1 1.2 4.8-.7 1.1-1.8 1.7-3 1.7z"/><circle cx="63.8" cy="60.5" r="8.4"/></g></svg>