<svg width="16" height="17" viewBox="0 0 16 17" fill="none" xmlns="http://www.w3.org/2000/svg">
<path fill-rule="evenodd" clip-rule="evenodd" d="M3.06236 8.5C3.06236 5.77309 5.27295 3.5625 7.99986 3.5625C10.7268 3.5625 12.9374 5.77309 12.9374 8.5C12.9374 8.56041 12.9363 8.62056 12.9341 8.68044C11.8412 9.39171 10.3029 10.0676 8.5212 10.545C6.76646 11.0152 5.1198 11.2006 3.82646 11.1397C3.34255 10.3762 3.06236 9.47082 3.06236 8.5ZM2.29684 10.9043C2.07222 10.3721 1.91991 9.80199 1.85222 9.20618C1.74742 9.31796 1.65835 9.42659 1.58503 9.5311C1.33676 9.88497 1.31756 10.116 1.35389 10.2516C1.38887 10.3821 1.51175 10.5627 1.8714 10.7394C1.99403 10.7997 2.13602 10.855 2.29684 10.9043ZM1.88833 7.52758C1.33606 7.93088 0.87717 8.36359 0.561746 8.81319C0.199812 9.32907 -0.0226035 9.94404 0.146484 10.5751C0.309012 11.1816 0.778221 11.595 1.32017 11.8613C1.82421 12.109 2.45242 12.2627 3.14778 12.34C4.28113 13.7701 6.03336 14.6875 7.99986 14.6875C11.1209 14.6875 13.7022 12.3767 14.1263 9.37268C14.6657 8.9694 15.113 8.53594 15.4156 8.08446C15.7518 7.58287 15.9515 6.99026 15.7889 6.3837C15.6329 5.80141 15.1935 5.39652 14.6803 5.13029C14.1716 4.86641 13.5305 4.70426 12.8221 4.6227C11.688 3.21394 9.9492 2.3125 7.99986 2.3125C4.91344 2.3125 2.35483 4.5723 1.88833 7.52758ZM13.6926 6.0715C13.9104 6.58131 14.0616 7.12631 14.1355 7.69559C14.2307 7.58969 14.3112 7.48704 14.3773 7.38848C14.6004 7.05562 14.6165 6.83778 14.5815 6.70722C14.5479 6.58157 14.4337 6.41055 14.1047 6.23986C13.9869 6.17876 13.8494 6.1222 13.6926 6.0715ZM12.5891 10.3251C11.8633 12.1486 10.0821 13.4375 7.99986 13.4375C6.85014 13.4375 5.7922 13.0445 4.95303 12.3856C6.14217 12.3296 7.47436 12.1196 8.84473 11.7524C10.24 11.3786 11.5195 10.8833 12.5891 10.3251Z" fill="#3767EB"/>
</svg>
