<svg width="280" height="280" viewBox="0 0 280 280" fill="none" xmlns="http://www.w3.org/2000/svg">
<g clip-path="url(#clip0_6426_1165)">
<path d="M140 256.158C204.211 256.158 256.263 204.106 256.263 139.895C256.263 75.684 204.211 23.632 140 23.632C75.7893 23.632 23.7373 75.684 23.7373 139.895C23.7373 204.106 75.7893 256.158 140 256.158Z" fill="#F9F1EC"/>
<path d="M232.518 88.466C232.518 82.712 227.849 78.05 222.095 78.05H57.8965C52.1425 78.05 47.4805 82.719 47.4805 88.466C47.5155 118.629 47.4805 202.783 47.4805 202.783H232.511C232.511 202.783 232.413 97.426 232.511 88.466H232.518Z" fill="white"/>
<path d="M222.102 78.05H57.8965C52.1425 78.05 47.4805 82.719 47.4805 88.466V94.206H232.483C232.483 91.728 232.504 89.768 232.518 88.466C232.518 82.712 227.849 78.05 222.095 78.05H222.102Z" fill="#BEBEFC"/>
<path d="M233.219 203.49H46.7808V202.79C46.7808 201.95 46.8158 118.286 46.7808 88.473C46.7808 82.341 51.7648 77.357 57.8968 77.357H222.096C228.228 77.357 233.219 82.341 233.219 88.473C233.121 97.335 233.219 201.74 233.219 202.79V203.49ZM48.1878 202.09H231.819C231.812 192.878 231.728 96.964 231.819 88.466C231.819 83.111 227.458 78.757 222.096 78.757H57.8968C52.5418 78.757 48.1808 83.118 48.1808 88.473C48.2088 116.837 48.1808 193.907 48.1808 202.097L48.1878 202.09Z" fill="#808080"/>
<path d="M20.3066 198.59H259.693V199.031C259.693 204.624 255.15 209.167 249.557 209.167H30.4426C24.8496 209.167 20.3066 204.624 20.3066 199.031V198.59Z" fill="#C0BABA"/>
<path d="M205.59 88.732C207.025 88.732 208.18 87.563 208.18 86.128C208.18 84.693 207.018 83.524 205.59 83.524C204.162 83.524 203 84.693 203 86.128C203 87.563 204.162 88.732 205.59 88.732Z" fill="#F9F1EC"/>
<path d="M213.689 88.732C215.124 88.732 216.279 87.563 216.279 86.128C216.279 84.693 215.117 83.524 213.689 83.524C212.261 83.524 211.099 84.693 211.099 86.128C211.099 87.563 212.261 88.732 213.689 88.732Z" fill="#F9F1EC"/>
<path d="M221.781 88.732C223.216 88.732 224.371 87.563 224.371 86.128C224.371 84.693 223.209 83.524 221.781 83.524C220.353 83.524 219.191 84.693 219.191 86.128C219.191 87.563 220.353 88.732 221.781 88.732Z" fill="#F9F1EC"/>
<path d="M154.364 198.59C153.125 200.578 150.92 201.915 148.407 201.915H131.6C129.087 201.915 126.882 200.585 125.643 198.59H124.047C125.419 201.383 128.289 203.315 131.607 203.315H148.414C151.732 203.315 154.595 201.383 155.974 198.59H154.378H154.364Z" fill="#737171"/>
<path d="M98.6998 160.539C98.6998 158.086 96.8882 156.1 94.6511 156.1H62.5003C60.4631 156.1 58.7998 157.917 58.7998 160.157V165.317C58.7998 165.402 58.7998 165.472 58.8127 165.55C58.8127 165.628 58.7998 165.705 58.7998 165.783V170.943C58.7998 173.176 60.4567 175 62.5003 175H94.6511C96.8882 175 98.6998 173.014 98.6998 170.561V160.553V160.539Z" fill="#E9DCFF"/>
<path d="M149.24 106.512C149.24 104.419 147.546 102.725 145.453 102.725H62.9999C60.7879 102.725 58.9819 104.524 58.9819 106.743V111.853C58.9819 114.065 60.7809 115.871 62.9999 115.871H145.453C147.546 115.871 149.24 114.177 149.24 112.084V106.512Z" fill="#E9DCFF"/>
<path d="M217.784 181.832H62.2228C60.4378 181.832 58.9888 183.281 58.9888 185.066V187.131C58.9888 188.916 60.4378 190.365 62.2228 190.365H217.777C219.562 190.365 221.011 188.916 221.011 187.131V185.066C221.011 183.281 219.562 181.832 217.777 181.832H217.784Z" fill="#F5EDFF"/>
<path d="M217.504 156.107H133.473C133.473 156.107 133.437 156.107 133.415 156.107H107.995C105.953 156.107 104.3 157.697 104.3 159.662V171.445C104.3 173.41 105.953 175 107.995 175H192.026C192.026 175 192.063 175 192.085 175H217.504C219.547 175 221.2 173.41 221.2 171.445V159.655C221.2 157.69 219.547 156.1 217.504 156.1V156.107Z" fill="#E9DCFF"/>
<path d="M215.18 122.052H194.908C194.908 122.052 194.894 122.052 194.88 122.052H64.8198C61.5998 122.052 58.9888 124.663 58.9888 127.883V143.934C58.9888 147.154 61.5998 149.765 64.8198 149.765H85.0918C85.0918 149.765 85.1058 149.765 85.1198 149.765H215.18C218.4 149.765 221.011 147.154 221.011 143.934V127.883C221.011 124.663 218.4 122.052 215.18 122.052Z" fill="#F5EDFF"/>
<path d="M216.958 102.732H160.405C158.193 102.732 156.387 104.531 156.387 106.75V111.86C156.387 114.072 158.186 115.878 160.405 115.878H216.958C219.17 115.878 220.976 114.079 220.976 111.86V106.75C220.976 104.538 219.177 102.732 216.958 102.732Z" fill="#E9DCFF"/>
<path d="M140.028 187.292C162.694 187.292 181.062 168.917 181.062 146.258C181.062 123.599 162.687 105.224 140.028 105.224C117.369 105.224 98.9941 123.599 98.9941 146.258C98.9941 168.917 117.369 187.292 140.028 187.292Z" fill="#24BC97"/>
<path d="M129.98 162.804C127.291 162.804 124.602 161.812 122.54 159.82L114.1 151.676L115.649 150.071L124.089 158.215C127.404 161.411 132.747 161.361 135.999 158.102L162.424 131.6L164 133.17L137.576 159.672C135.499 161.756 132.74 162.804 129.98 162.804V162.804Z" fill="white"/>
</g>
<defs>
<clipPath id="clip0_6426_1165">
<rect width="280" height="280" fill="white"/>
</clipPath>
</defs>
</svg>
