<svg width="16" height="16" viewBox="0 0 16 16" fill="none" xmlns="http://www.w3.org/2000/svg">
<g filter="url(#filter0_i_1452_15775)">
<path fill-rule="evenodd" clip-rule="evenodd" d="M5.87727 4.10549C7.60642 2.47312 9.89031 1.30767 12.3465 1.37802L12.3861 1.37914C12.666 1.38703 12.9602 1.39532 13.226 1.4596C13.5452 1.53677 13.8124 1.68787 14.065 1.94129C14.3175 2.19456 14.4677 2.46205 14.5439 2.78128C14.6074 3.04717 14.6147 3.34108 14.6217 3.62052L14.6227 3.66011C14.6847 6.10136 13.5173 8.3599 11.897 10.078C11.717 10.2689 11.5924 10.4011 11.5027 10.5026C11.4586 10.5524 11.4284 10.5888 11.4075 10.6159C11.3901 10.6384 11.383 10.6497 11.3815 10.6522L11.3811 10.6533L11.3801 10.656C11.3733 10.674 11.3447 10.7493 11.2897 10.9376C11.2294 11.1442 11.1518 11.4328 11.0447 11.8309C10.931 12.2536 10.7607 12.6462 10.5499 13.0129L10.5258 13.0547C10.3576 13.3475 10.1878 13.6431 9.99834 13.8579C9.76407 14.1235 9.46019 14.3146 9.04338 14.3285C8.59646 14.3434 8.27007 14.1308 8.02119 13.8711C7.80688 13.6474 7.59532 13.3303 7.37179 12.9952L7.25739 12.8238C7.1666 12.6877 7.11297 12.6078 7.07095 12.552C7.06942 12.5499 7.06795 12.548 7.06653 12.5461C7.01768 12.5299 6.9475 12.5089 6.85013 12.4819C6.63175 12.4212 6.31766 12.3414 5.88468 12.2314C5.39588 12.1072 4.91737 11.8385 4.52304 11.4458C4.12835 11.0527 3.85711 10.5746 3.73378 10.0826C3.6237 9.64344 3.54375 9.32462 3.48302 9.103C3.45576 9.00351 3.43458 8.93185 3.41827 8.88208L3.41367 8.87857C3.35897 8.83717 3.28061 8.78435 3.14634 8.69436L3.00727 8.60115C2.67183 8.37641 2.35413 8.16355 2.13049 7.94788C1.87034 7.697 1.65885 7.36839 1.67685 6.91982C1.69362 6.50189 1.88714 6.19848 2.15632 5.96575C2.37354 5.77796 2.67173 5.6112 2.96666 5.44627L3.00895 5.42262C3.36676 5.22234 3.74837 5.06044 4.15736 4.95039C4.5442 4.8463 4.82407 4.77096 5.02476 4.71225C5.20987 4.65809 5.28173 4.63039 5.29809 4.62408C5.30076 4.62305 5.30192 4.62268 5.30192 4.62268C5.30433 4.62119 5.31561 4.61407 5.33824 4.5966C5.36547 4.57559 5.4019 4.54525 5.45182 4.50106C5.55352 4.41102 5.68601 4.28605 5.87727 4.10549Z" fill="url(#paint0_linear_1452_15775)"/>
</g>
<mask id="mask0_1452_15775" style="mask-type:alpha" maskUnits="userSpaceOnUse" x="1" y="1" width="14" height="14">
<path fill-rule="evenodd" clip-rule="evenodd" d="M5.87727 4.10549C7.60642 2.47312 9.89031 1.30767 12.3465 1.37802L12.3861 1.37914C12.666 1.38703 12.9602 1.39532 13.226 1.4596C13.5452 1.53677 13.8124 1.68787 14.065 1.94129C14.3175 2.19456 14.4677 2.46205 14.5439 2.78128C14.6074 3.04717 14.6147 3.34108 14.6217 3.62052L14.6227 3.66011C14.6847 6.10136 13.5173 8.3599 11.897 10.078C11.717 10.2689 11.5924 10.4011 11.5027 10.5026C11.4586 10.5524 11.4284 10.5888 11.4075 10.6159C11.3901 10.6384 11.383 10.6497 11.3815 10.6522L11.3811 10.6533L11.3801 10.656C11.3733 10.674 11.3447 10.7493 11.2897 10.9376C11.2294 11.1442 11.1518 11.4328 11.0447 11.8309C10.931 12.2536 10.7607 12.6462 10.5499 13.0129L10.5258 13.0547C10.3576 13.3475 10.1878 13.6431 9.99834 13.8579C9.76407 14.1235 9.46019 14.3146 9.04338 14.3285C8.59646 14.3434 8.27007 14.1308 8.02119 13.8711C7.80688 13.6474 7.59532 13.3303 7.37179 12.9952L7.25739 12.8238C7.1666 12.6877 7.11297 12.6078 7.07095 12.552C7.06942 12.5499 7.06795 12.548 7.06653 12.5461C7.01768 12.5299 6.9475 12.5089 6.85013 12.4819C6.63175 12.4212 6.31766 12.3414 5.88468 12.2314C5.39588 12.1072 4.91737 11.8385 4.52304 11.4458C4.12835 11.0527 3.85711 10.5746 3.73378 10.0826C3.6237 9.64344 3.54375 9.32462 3.48302 9.103C3.45576 9.00351 3.43458 8.93185 3.41827 8.88208L3.41367 8.87857C3.35897 8.83717 3.28061 8.78435 3.14634 8.69436L3.00727 8.60115C2.67183 8.37641 2.35413 8.16355 2.13049 7.94788C1.87034 7.697 1.65885 7.36839 1.67685 6.91982C1.69362 6.50189 1.88714 6.19848 2.15632 5.96575C2.37354 5.77796 2.67173 5.6112 2.96666 5.44627L3.00895 5.42262C3.36676 5.22234 3.74837 5.06044 4.15736 4.95039C4.5442 4.8463 4.82407 4.77096 5.02476 4.71225C5.20987 4.65809 5.28173 4.63039 5.29809 4.62408C5.30076 4.62305 5.30192 4.62268 5.30192 4.62268C5.30433 4.62119 5.31561 4.61407 5.33824 4.5966C5.36547 4.57559 5.4019 4.54525 5.45182 4.50106C5.55352 4.41102 5.68601 4.28605 5.87727 4.10549Z" fill="url(#paint1_linear_1452_15775)"/>
</mask>
<g mask="url(#mask0_1452_15775)">
<g filter="url(#filter1_f_1452_15775)">
<path fill-rule="evenodd" clip-rule="evenodd" d="M5.61841 11.9403C7.26241 11.8681 9.24796 11.3589 10.8816 10.0761C14.0768 7.56711 15.4638 3.36401 14.0001 1.49997C13.9832 1.47847 13.966 1.45737 13.9485 1.43668C14.7359 1.4182 15.4375 1.62479 15.9793 2.08266C17.7895 3.61246 17.1312 7.36799 14.509 10.4709C11.8868 13.5738 7.34826 14.0501 6.48337 13.3192C6.06571 12.9663 5.77945 12.4948 5.61841 11.9403Z" fill="#4A17F5"/>
</g>
<g filter="url(#filter2_f_1452_15775)">
<path d="M13.099 7.56554C13.7457 8.24345 12.6824 10.059 11.3184 11.36C9.95444 12.661 8.32455 13.1661 7.67794 12.4882C5.5875 10.2966 8.8999 10.5015 10.2639 9.2005C11.6278 7.8995 12.4524 6.88764 13.099 7.56554Z" fill="#3706DC"/>
</g>
<g filter="url(#filter3_f_1452_15775)">
<path d="M7 13.0001C6.70259 13.4654 4.90839 12.544 3.87365 11.8827C2.83892 11.2214 2.2412 10.3081 2.53861 9.84271C3.50012 8.33821 3.96537 10.3388 5.0001 11.0001C6.03484 11.6614 7.29741 12.5347 7 13.0001Z" fill="url(#paint2_linear_1452_15775)"/>
</g>
</g>
<g filter="url(#filter4_i_1452_15775)">
<path fill-rule="evenodd" clip-rule="evenodd" d="M11.6439 10.3474C10.1906 11.6136 8.41376 12.2809 6.97633 12.5178C7.01224 12.5285 7.04206 12.5378 7.06653 12.5459L7.07095 12.5518C7.11297 12.6076 7.1666 12.6875 7.25739 12.8236L7.37179 12.995L7.3718 12.995C7.59533 13.3301 7.80688 13.6473 8.02119 13.8709C8.27007 14.1306 8.59646 14.3432 9.04338 14.3283C9.46019 14.3144 9.76407 14.1233 9.99834 13.8578C10.1878 13.643 10.3576 13.3474 10.5258 13.0545L10.5258 13.0545L10.5499 13.0127C10.7607 12.646 10.931 12.2534 11.0447 11.8307C11.1518 11.4326 11.2294 11.144 11.2897 10.9374C11.3447 10.7491 11.3733 10.6738 11.3801 10.6558L11.3811 10.6531L11.3815 10.652C11.383 10.6495 11.3901 10.6382 11.4075 10.6157C11.4284 10.5886 11.4586 10.5522 11.5027 10.5024C11.5424 10.4576 11.5888 10.4067 11.6439 10.3474ZM5.60698 4.35938C5.54765 4.41454 5.49673 4.46112 5.45182 4.50088C5.4019 4.54507 5.36547 4.5754 5.33824 4.59642C5.31561 4.61389 5.30433 4.62101 5.30192 4.62249L5.29809 4.6239C5.28173 4.63021 5.20987 4.65791 5.02476 4.71206C4.82407 4.77078 4.5442 4.84612 4.15736 4.95021C3.74837 5.06025 3.36676 5.22215 3.00895 5.42243L2.96666 5.44609L2.96666 5.44609C2.67173 5.61102 2.37354 5.77778 2.15632 5.96557C1.88714 6.1983 1.69362 6.50171 1.67685 6.91964C1.65885 7.36821 1.87034 7.69682 2.13049 7.9477C2.35413 8.16337 2.67183 8.37623 3.00727 8.60096L3.14634 8.69417C3.28061 8.78417 3.35897 8.83699 3.41367 8.87839L3.41827 8.8819C3.43458 8.93167 3.45576 9.00332 3.48302 9.10282C3.48693 9.11709 3.49092 9.13176 3.49499 9.14684C3.65473 7.6628 4.38006 5.94529 5.60698 4.35938Z" fill="url(#paint3_linear_1452_15775)"/>
</g>
<g filter="url(#filter5_i_1452_15775)">
<path d="M4.06207 13.8298C4.67577 13.2163 4.7853 12.3206 4.28264 11.8181C3.77847 11.3132 2.88568 11.4257 2.27198 12.0393C1.54574 12.7647 1.1001 15 1.1001 15C1.1001 15 3.2533 14.6392 4.06207 13.8298Z" fill="url(#paint4_linear_1452_15775)"/>
</g>
<g filter="url(#filter6_i_1452_15775)">
<path d="M9.75 7.625C10.5094 7.625 11.125 7.00939 11.125 6.25C11.125 5.49061 10.5094 4.875 9.75 4.875C8.99061 4.875 8.375 5.49061 8.375 6.25C8.375 7.00939 8.99061 7.625 9.75 7.625Z" fill="white"/>
</g>
<path d="M9.75 8.125C10.7855 8.125 11.625 7.28553 11.625 6.25C11.625 5.21447 10.7855 4.375 9.75 4.375C8.71447 4.375 7.875 5.21447 7.875 6.25C7.875 7.28553 8.71447 8.125 9.75 8.125Z" stroke="#ED2892" stroke-opacity="0.26" style="mix-blend-mode:multiply"/>
<defs>
<filter id="filter0_i_1452_15775" x="1.67578" y="1.375" width="13.9492" height="14.4541" filterUnits="userSpaceOnUse" color-interpolation-filters="sRGB">
<feFlood flood-opacity="0" result="BackgroundImageFix"/>
<feBlend mode="normal" in="SourceGraphic" in2="BackgroundImageFix" result="shape"/>
<feColorMatrix in="SourceAlpha" type="matrix" values="0 0 0 0 0 0 0 0 0 0 0 0 0 0 0 0 0 0 127 0" result="hardAlpha"/>
<feOffset dx="1" dy="1.5"/>
<feGaussianBlur stdDeviation="1"/>
<feComposite in2="hardAlpha" operator="arithmetic" k2="-1" k3="1"/>
<feColorMatrix type="matrix" values="0 0 0 0 0.740348 0 0 0 0 0.781893 0 0 0 0 1 0 0 0 0.6 0"/>
<feBlend mode="overlay" in2="shape" result="effect1_innerShadow_1452_15775"/>
</filter>
<filter id="filter1_f_1452_15775" x="4.61841" y="0.435547" width="13.3828" height="14.1841" filterUnits="userSpaceOnUse" color-interpolation-filters="sRGB">
<feFlood flood-opacity="0" result="BackgroundImageFix"/>
<feBlend mode="normal" in="SourceGraphic" in2="BackgroundImageFix" result="shape"/>
<feGaussianBlur stdDeviation="0.5" result="effect1_foregroundBlur_1452_15775"/>
</filter>
<filter id="filter2_f_1452_15775" x="3.00342" y="3.34863" width="14.2898" height="13.4409" filterUnits="userSpaceOnUse" color-interpolation-filters="sRGB">
<feFlood flood-opacity="0" result="BackgroundImageFix"/>
<feBlend mode="normal" in="SourceGraphic" in2="BackgroundImageFix" result="shape"/>
<feGaussianBlur stdDeviation="2" result="effect1_foregroundBlur_1452_15775"/>
</filter>
<filter id="filter3_f_1452_15775" x="-0.537842" y="6.29492" width="10.582" height="9.83154" filterUnits="userSpaceOnUse" color-interpolation-filters="sRGB">
<feFlood flood-opacity="0" result="BackgroundImageFix"/>
<feBlend mode="normal" in="SourceGraphic" in2="BackgroundImageFix" result="shape"/>
<feGaussianBlur stdDeviation="1.5" result="effect1_foregroundBlur_1452_15775"/>
</filter>
<filter id="filter4_i_1452_15775" x="1.67578" y="3.85938" width="9.96802" height="10.4697" filterUnits="userSpaceOnUse" color-interpolation-filters="sRGB">
<feFlood flood-opacity="0" result="BackgroundImageFix"/>
<feBlend mode="normal" in="SourceGraphic" in2="BackgroundImageFix" result="shape"/>
<feColorMatrix in="SourceAlpha" type="matrix" values="0 0 0 0 0 0 0 0 0 0 0 0 0 0 0 0 0 0 127 0" result="hardAlpha"/>
<feOffset dy="-0.5"/>
<feGaussianBlur stdDeviation="0.25"/>
<feComposite in2="hardAlpha" operator="arithmetic" k2="-1" k3="1"/>
<feColorMatrix type="matrix" values="0 0 0 0 0.341176 0 0 0 0 0.168627 0 0 0 0 0.886275 0 0 0 0.83 0"/>
<feBlend mode="normal" in2="shape" result="effect1_innerShadow_1452_15775"/>
</filter>
<filter id="filter5_i_1452_15775" x="1.1001" y="11.5" width="3.5" height="4" filterUnits="userSpaceOnUse" color-interpolation-filters="sRGB">
<feFlood flood-opacity="0" result="BackgroundImageFix"/>
<feBlend mode="normal" in="SourceGraphic" in2="BackgroundImageFix" result="shape"/>
<feColorMatrix in="SourceAlpha" type="matrix" values="0 0 0 0 0 0 0 0 0 0 0 0 0 0 0 0 0 0 127 0" result="hardAlpha"/>
<feOffset dy="0.5"/>
<feGaussianBlur stdDeviation="0.5"/>
<feComposite in2="hardAlpha" operator="arithmetic" k2="-1" k3="1"/>
<feColorMatrix type="matrix" values="0 0 0 0 0.933856 0 0 0 0 0.00823409 0 0 0 0 0.00823409 0 0 0 0.25 0"/>
<feBlend mode="normal" in2="shape" result="effect1_innerShadow_1452_15775"/>
</filter>
<filter id="filter6_i_1452_15775" x="7.375" y="3.875" width="4.75" height="5.25" filterUnits="userSpaceOnUse" color-interpolation-filters="sRGB">
<feFlood flood-opacity="0" result="BackgroundImageFix"/>
<feBlend mode="normal" in="SourceGraphic" in2="BackgroundImageFix" result="shape"/>
<feColorMatrix in="SourceAlpha" type="matrix" values="0 0 0 0 0 0 0 0 0 0 0 0 0 0 0 0 0 0 127 0" result="hardAlpha"/>
<feOffset dy="0.5"/>
<feGaussianBlur stdDeviation="0.5"/>
<feComposite in2="hardAlpha" operator="arithmetic" k2="-1" k3="1"/>
<feColorMatrix type="matrix" values="0 0 0 0 0.352941 0 0 0 0 0.223529 0 0 0 0 0.87451 0 0 0 1 0"/>
<feBlend mode="normal" in2="shape" result="effect1_innerShadow_1452_15775"/>
</filter>
<linearGradient id="paint0_linear_1452_15775" x1="14.0001" y1="2" x2="6.49866" y2="6.49766" gradientUnits="userSpaceOnUse">
<stop stop-color="#9F87FC"/>
<stop offset="1" stop-color="#5941EA"/>
</linearGradient>
<linearGradient id="paint1_linear_1452_15775" x1="14.0001" y1="2" x2="6.49866" y2="6.49766" gradientUnits="userSpaceOnUse">
<stop stop-color="#9F87FC"/>
<stop offset="1" stop-color="#6841EA"/>
</linearGradient>
<linearGradient id="paint2_linear_1452_15775" x1="5.03026" y1="10.372" x2="4.5" y2="11.5001" gradientUnits="userSpaceOnUse">
<stop stop-color="#EA9241"/>
<stop offset="1" stop-color="#EE4B27"/>
</linearGradient>
<linearGradient id="paint3_linear_1452_15775" x1="3.03331" y1="5.49982" x2="10.4976" y2="14.6819" gradientUnits="userSpaceOnUse">
<stop stop-color="#7B56F5"/>
<stop offset="0.128278" stop-color="#8C6DF1"/>
<stop offset="0.779855" stop-color="#7F5DED"/>
<stop offset="0.923245" stop-color="#5F37FE"/>
</linearGradient>
<linearGradient id="paint4_linear_1452_15775" x1="4.0401" y1="12.06" x2="1.8001" y2="15.42" gradientUnits="userSpaceOnUse">
<stop stop-color="#EA7441"/>
<stop offset="1" stop-color="#ECB74F"/>
</linearGradient>
</defs>
</svg>
