<svg width="20" height="13" viewBox="0 0 20 13" fill="none" xmlns="http://www.w3.org/2000/svg">
<g id="Frame 628364">
<g id="Rectangle 6932" opacity="0.8" filter="url(#filter0_b_2_6185)">
<rect x="13.4329" y="3.58209" width="5.37313" height="5.37313" rx="1.13433" fill="url(#paint0_linear_2_6185)"/>
<rect x="13.4329" y="3.58209" width="5.37313" height="5.37313" rx="1.13433" fill="url(#paint1_linear_2_6185)"/>
<rect x="13.454" y="3.60322" width="5.33089" height="5.33089" rx="1.11321" stroke="#E9DEFF" stroke-opacity="0.1" stroke-width="0.0422463"/>
</g>
<g id="Rectangle 6931" opacity="0.8" filter="url(#filter1_b_2_6185)">
<rect x="10.1492" y="2.68657" width="7.16418" height="7.16418" rx="1.49254" fill="url(#paint2_linear_2_6185)"/>
<rect x="10.1768" y="2.71418" width="7.10896" height="7.10896" rx="1.46493" stroke="#E9DEFF" stroke-opacity="0.1" stroke-width="0.0552239"/>
</g>
<rect id="Rectangle 6930" opacity="0.9" x="5.67163" y="1.49254" width="9.55224" height="9.55224" rx="1.91045" fill="url(#paint3_linear_2_6185)"/>
<g id="Group 1228">
<rect id="Rectangle 6930_2" width="12.5373" height="12.5373" rx="3.04478" fill="url(#paint4_linear_2_6185)"/>
<g id="Union">
<path d="M3.17748 9.14348C2.80249 9.14705 2.58297 8.74593 2.80247 8.45823L4.39886 6.36579C4.56363 6.14982 4.89348 6.12427 5.09279 6.31202L5.54937 6.74212C5.75852 6.93914 6.1076 6.89967 6.2622 6.66152L7.0185 5.49644C7.1898 5.23255 7.59008 5.21892 7.78043 5.4705L9.99518 8.39767C10.2105 8.68224 9.9974 9.0785 9.62716 9.08203L3.17748 9.14348Z" fill="white"/>
<path d="M4.38762 5.18556C4.89287 5.18075 5.29877 4.78959 5.29422 4.31189C5.28967 3.83419 4.87639 3.45084 4.37114 3.45565C3.86589 3.46047 3.45999 3.85162 3.46454 4.32933C3.46909 4.80703 3.88237 5.19038 4.38762 5.18556Z" fill="white"/>
</g>
</g>
</g>
<defs>
<filter id="filter0_b_2_6185" x="11.743" y="1.89224" width="8.75287" height="8.75284" filterUnits="userSpaceOnUse" color-interpolation-filters="sRGB">
<feFlood flood-opacity="0" result="BackgroundImageFix"/>
<feGaussianBlur in="BackgroundImageFix" stdDeviation="0.844925"/>
<feComposite in2="SourceAlpha" operator="in" result="effect1_backgroundBlur_2_6185"/>
<feBlend mode="normal" in="SourceGraphic" in2="effect1_backgroundBlur_2_6185" result="shape"/>
</filter>
<filter id="filter1_b_2_6185" x="7.94021" y="0.477614" width="11.5821" height="11.5821" filterUnits="userSpaceOnUse" color-interpolation-filters="sRGB">
<feFlood flood-opacity="0" result="BackgroundImageFix"/>
<feGaussianBlur in="BackgroundImageFix" stdDeviation="1.10448"/>
<feComposite in2="SourceAlpha" operator="in" result="effect1_backgroundBlur_2_6185"/>
<feBlend mode="normal" in="SourceGraphic" in2="effect1_backgroundBlur_2_6185" result="shape"/>
</filter>
<linearGradient id="paint0_linear_2_6185" x1="16.1194" y1="3.58209" x2="16.1194" y2="8.95523" gradientUnits="userSpaceOnUse">
<stop stop-color="#43DBA4"/>
<stop offset="1" stop-color="#54D296" stop-opacity="0.81"/>
</linearGradient>
<linearGradient id="paint1_linear_2_6185" x1="16.1194" y1="3.58209" x2="16.1194" y2="8.95523" gradientUnits="userSpaceOnUse">
<stop stop-color="#FFB763"/>
<stop offset="1" stop-color="#FFF386" stop-opacity="0.84"/>
</linearGradient>
<linearGradient id="paint2_linear_2_6185" x1="13.7313" y1="2.68657" x2="13.7313" y2="9.85075" gradientUnits="userSpaceOnUse">
<stop stop-color="#4FEEB4"/>
<stop offset="1" stop-color="#6EEE4F" stop-opacity="0.8"/>
</linearGradient>
<linearGradient id="paint3_linear_2_6185" x1="10.4478" y1="1.49254" x2="10.4478" y2="11.0448" gradientUnits="userSpaceOnUse">
<stop stop-color="#6587FF"/>
<stop offset="1" stop-color="#40E8FF" stop-opacity="0.9"/>
</linearGradient>
<linearGradient id="paint4_linear_2_6185" x1="7.46269" y1="1.34559e-07" x2="8.70491" y2="11.8434" gradientUnits="userSpaceOnUse">
<stop stop-color="#E668FA"/>
<stop offset="1" stop-color="#FF90ED"/>
</linearGradient>
</defs>
</svg>
