
<svg id="SvgjsSvg1001" width="288" height="288" xmlns="http://www.w3.org/2000/svg" version="1.1" xmlns:xlink="http://www.w3.org/1999/xlink" xmlns:svgjs="http://svgjs.com/svgjs"><defs id="SvgjsDefs1002"></defs><g id="SvgjsG1008"><svg xmlns="http://www.w3.org/2000/svg" fill="none" viewBox="0 0 400 232" width="288" height="288"><path fill="#06c896" d="M0 0h400v232H0z" class="color4E8CF9 svgShape"></path><path stroke="#FFC100" stroke-width="7.491" d="M227.637 78.364h19.411a5.708 5.708 0 015.652 6.504v0a22.831 22.831 0 01-15.968 18.66l-8.289 2.52M173.147 78.364l-.806 27.684-10.523-3.199c-7.171-2.18-12.272-7.609-13.176-14.022l-.596-4.23a4.718 4.718 0 01-.046-.66c0-3.078 2.943-5.573 6.574-5.573h18.573z" class="colorStrokeFFC100 svgStroke"></path><path fill="#3063bb" fill-rule="evenodd" d="M210.39 152.718h-20.102l-.163-27.93h20.427l-.162 27.93z" clip-rule="evenodd" class="color3063BB svgShape"></path><path fill="#ffc100" fill-rule="evenodd" d="M234.56 148.933h-67.073c-3.689 0-6.707 3.586-6.707 7.97v12.32h80.152v-12.32c.335-4.384-2.683-7.97-6.372-7.97z" clip-rule="evenodd" class="colorFFC100 svgShape"></path><path fill="#ffffff" d="M179.04 153.513h43.826v10.992H179.04z" class="colorfff svgShape"></path><path fill="#ffc100" fill-rule="evenodd" d="M236.024 68.01v22.945c0 21.247-13.629 48.23-35.636 48.23-22.006 0-35.635-26.983-35.635-48.442V68.009h71.271z" clip-rule="evenodd" class="colorFFC100 svgShape"></path><path fill="#ffffff" fill-rule="evenodd" d="M190.984 113.642c-2.419-.778 1.752-8.222 1.285-10.561-.467-2.34-6.707-5.567-7.167-7.779-.461-2.212 8.529-1.045 10.312-2.026 1.783-.981 3.097-8.99 5.089-9.308 1.992-.318 3.575 8.203 5.089 9.308 1.513 1.106 10.085.164 10.312 2.026.227 1.862-6.714 5.547-7.168 7.779-.453 2.231 2.729 9.648 1.285 10.561-1.444.912-7.39-4.35-9.518-4.502-2.128-.151-7.099 5.279-9.519 4.502z" clip-rule="evenodd" class="colorfff svgShape"></path><path fill="#ff9900" fill-rule="evenodd" d="M236.103 61h-71.271c-1.598 0-4.052 2.267-4.052 4.534 0 2.644 2.453 4.911 4.052 4.911h71.271c1.599 0 4.053-2.266 4.053-4.533 0-2.645-2.454-4.912-4.053-4.912z" clip-rule="evenodd" class="colorF90 svgShape"></path><path fill="#1ec794" fill-rule="evenodd" d="M123.833 188.401c2.788-2.773 3.972-4.708 4.088-4.639 2.599 3.072 4.283 3.687 4.005 3.981-1.712 1.807-1.896 2.364-4.016 4.705l-4.077-4.047z" clip-rule="evenodd" class="color1EC794 svgShape"></path><path fill="#ff8100" fill-rule="evenodd" d="M114.833 91.401c2.788-2.773 3.972-4.708 4.088-4.639 2.599 3.072 4.283 3.687 4.005 3.98-1.712 1.808-1.896 2.365-4.016 4.706l-4.077-4.047z" clip-rule="evenodd" class="colorFF8100 svgShape"></path><path stroke="#B1D8FF" stroke-linecap="round" stroke-linejoin="round" stroke-width="1.98" d="M78 137.731c3.525 3.925 7.28 7.561 11 11.269M87.357 137c-2.391 3.973-5.826 6.937-8.643 10.464M301.968 180.517c-.282 5.268-.197 10.495-.19 15.747M309.102 186.616c-4.5 1.119-9.025.786-13.511 1.288" class="colorStrokeB1D8FF svgStroke"></path><path fill="#ff8100" fill-rule="evenodd" d="M319.308 37.432c-1.531-1.13-4.562-2.032-6.974-.935-7.157 3.256-4.987 13.675 3.113 13.5 2.918-.062 5.859-3.264 6.463-6.02.484-2.21-1.072-5.415-2.602-6.545z" clip-rule="evenodd" class="colorFF8100 svgShape"></path><path fill="#ffc100" fill-rule="evenodd" d="M62.965 66.197c-2.038-.496-3.964-.072-5.38 1.455-4.203 4.53.642 11.374 6.498 8.777 2.11-.936 3.252-4.14 2.83-6.31-.338-1.74-2.065-3.929-3.946-3.866M286.433 135.126c-1.297-.316-2.523-.046-3.425.925-2.674 2.883.41 7.238 4.136 5.585 1.342-.595 2.069-2.634 1.801-4.015-.216-1.107-1.314-2.5-2.511-2.46" clip-rule="evenodd" class="colorFFC100 svgShape"></path><path fill="#1b2653" fill-rule="evenodd" d="M351 113.679c1.543-2.235 8.74-8.762 8.825-8.678.474.469 8.046 7.77 9.175 8.999l-18-.321z" clip-rule="evenodd" class="color1B2653 svgShape"></path><path fill="#ffffff" fill-rule="evenodd" d="M341 151.901c3.953 3.618 5.581 6.2 5.759 6.096 4.056-4.441 6.594-5.42 6.201-5.803-2.421-2.367-2.658-3.122-5.648-6.194L341 151.901z" clip-rule="evenodd" class="colorfff svgShape"></path><path fill="#3063bb" fill-rule="evenodd" d="M169 32.9c3.953 3.619 5.581 6.201 5.759 6.097 4.056-4.44 6.594-5.42 6.201-5.803-2.421-2.367-2.658-3.122-5.648-6.194L169 32.9z" clip-rule="evenodd" class="color3063BB svgShape"></path><path stroke="#B1D8FF" stroke-linecap="round" stroke-linejoin="round" stroke-width="1.98" d="M101.266 33.54c-.527 1.568-1.045 3.09-1.208 4.723-1.26 12.671 18.388 3.477 11.538-2.429-3.679-3.17-6.167 6.713 3.085 9.04 4.911 1.234 10.376-6.925 5.098-9.58-3.75-1.886-3.753 6.923 1.476 8.5 12.49 3.769 14.741-13.108 8.317-10.523-4.77 1.918-.562 11.554 5.903 10.254 2.929-.59 9.642-8.943 4.427-10.255-2.301-.578-2.683 2.692-2.683 4.318 0 4.447 4.69 4.239 7.781 5.127" class="colorStrokeB1D8FF svgStroke"></path><path fill="#ffffff" fill-rule="evenodd" d="M224.833 41.401c2.788-2.773 3.972-4.708 4.088-4.639 2.599 3.072 4.283 3.687 4.005 3.98-1.712 1.808-1.896 2.365-4.016 4.706l-4.077-4.047z" clip-rule="evenodd" class="colorfff svgShape"></path></svg></g></svg>