<svg xmlns="http://www.w3.org/2000/svg" viewBox="0 0 1880.93 496.68">
    <path fill="currentColor" d="M253,450.42A106.78,106.78,0,0,1,146.33,343.76V160.51a106.66,106.66,0,1,1,213.32,0V343.76A106.78,106.78,0,0,1,253,450.42Zm0-366.49a76.67,76.67,0,0,0-76.59,76.58V343.76a76.59,76.59,0,1,0,153.17,0V160.51A76.66,76.66,0,0,0,253,83.93Z"/>
    <path fill="currentColor" d="M332.16,404.65A106,106,0,0,1,279,390.32l-158.7-91.63A106.66,106.66,0,0,1,227,114l158.7,91.63a106.73,106.73,0,0,1-53.51,199.07ZM173.77,129.75a76.58,76.58,0,0,0-38.42,142.9L294,364.27a76.66,76.66,0,0,0,104.62-28h0a76.6,76.6,0,0,0-28-104.62L211.93,140A76.07,76.07,0,0,0,173.77,129.75Z"/>
    <path fill="currentColor" d="M173.81,404.65a106.68,106.68,0,0,1-53.5-199.07L279,114a106.79,106.79,0,0,1,145.7,39h0a106.79,106.79,0,0,1-39,145.7L227,390.32A106,106,0,0,1,173.81,404.65Zm158.4-274.9A76.08,76.08,0,0,0,294,140L135.35,231.62a76.58,76.58,0,1,0,76.58,132.65l158.7-91.62a76.67,76.67,0,0,0,28-104.62l13-7.52-13,7.52A76.65,76.65,0,0,0,332.21,129.75Z"/>
    <path fill="currentColor" d="M637.61,133.56c34.15,0,59.91,19.22,68.09,50.3H667.26c-5.93-12.27-16.77-18.4-30.06-18.4-21.47,0-36.2,15.95-36.2,41.3s14.73,41.31,36.2,41.31c13.29,0,24.13-6.13,30.06-18.4H705.7c-8.18,31.08-33.94,50.1-68.09,50.1-42.33,0-72.19-30.06-72.19-73S595.28,133.56,637.61,133.56Z"/>
    <path fill="currentColor" d="M849.66,219.65H795.27v59.09h-35V135.19h35v56.24h54.39V135.19h35V278.74h-35Z"/>
    <path fill="currentColor" d="M1032.27,253.39H978.7l-8.59,25.35H933.5l51.94-143.55h40.49l51.94,143.55h-37Zm-26.79-79.55L987.9,226.39h35.37Z"/>
    <path fill="currentColor" d="M1119,135.19h111v28h-38V278.74h-35V163.21h-38Z"/>
    <path fill="currentColor" d="M1491.14,180.59H1452.5c-5.32-9.61-15.13-14.72-28.22-14.72-22.5,0-37.42,15.95-37.42,40.89,0,26.59,15.13,42.13,40.28,42.13,17.38,0,29.45-9.2,34.76-25.36h-44.37V197.77h76.07v32.51c-7.36,24.74-31.29,49.49-69.12,49.49-42.94,0-73.2-30.06-73.2-73s30.06-73.2,73-73.2C1458.63,133.56,1483.58,151.14,1491.14,180.59Z"/>
    <path fill="currentColor" d="M1602.8,227.21h-21.68v51.53h-35V135.19h56.64c35.17,0,52.76,19.84,52.76,46.22C1655.56,205.13,1639.4,227.21,1602.8,227.21Zm-2.66-27.81c13.91,0,19.84-7,19.84-18s-5.93-18-19.84-18h-19v36Z"/>
    <path fill="currentColor" d="M1699.11,135.19h111v28h-38V278.74h-35V163.21h-38Z"/>
    <path fill="currentColor" d="M578.73,323.44H615v8.25H588.84v18.19h20.41v8.25H588.84v27H578.73Z"/>
    <path fill="currentColor" d="M723.51,385.72c-17.39,0-31.49-13-31.49-31.58s14.1-31.5,31.49-31.5c17.57,0,31.5,13,31.5,31.5S741.08,385.72,723.51,385.72Zm0-8.78c12.24,0,21.12-8.88,21.12-22.8s-8.88-22.63-21.12-22.63-21.11,8.7-21.11,22.63S711.27,376.94,723.51,376.94Z"/>
    <path fill="currentColor" d="M857.21,323.44c14.63,0,21.82,8.43,21.82,18.45,0,7.28-3.9,15.08-14.28,17.66L880,385.1H867.94l-14.2-24.67H846V385.1H835.91V323.44Zm0,8.25H846v20.67h11.18c7.89,0,11.44-4.35,11.44-10.47S865.1,331.69,857.21,331.69Z"/>
    <path fill="currentColor" d="M1085.11,322.64c12.87,0,24,6.48,28.66,18.54h-12.15c-3.29-6.56-9.14-9.67-16.51-9.67-12.24,0-21.11,8.7-21.11,22.63s8.87,22.71,21.11,22.71c7.37,0,13.22-3.11,16.51-9.67h12.15c-4.7,12.06-15.79,18.45-28.66,18.45-17.38,0-31.49-12.95-31.49-31.49S1067.73,322.64,1085.11,322.64Z"/>
    <path fill="currentColor" d="M1235.66,358.13h-29v27h-10.11V323.44h10.11v26.44h29V323.44h10.12V385.1h-10.12Z"/>
    <path fill="currentColor" d="M1351.35,323.44c14.64,0,21.82,8.43,21.82,18.45,0,7.28-3.9,15.08-14.28,17.66l15.26,25.55h-12.07l-14.19-24.67h-7.72V385.1h-10.11V323.44Zm0,8.25h-11.18v20.67h11.18c7.89,0,11.44-4.35,11.44-10.47S1359.24,331.69,1351.35,331.69Z"/>
    <path fill="currentColor" d="M1485.22,385.72c-17.39,0-31.49-13-31.49-31.58s14.1-31.5,31.49-31.5c17.57,0,31.49,13,31.49,31.5S1502.79,385.72,1485.22,385.72Zm0-8.78c12.24,0,21.12-8.88,21.12-22.8s-8.88-22.63-21.12-22.63-21.11,8.7-21.11,22.63S1473,376.94,1485.22,376.94Z"/>
    <path fill="currentColor" d="M1597.62,323.44h10.91l21.65,48.35,21.56-48.35h10.82V385.1h-10.11V342.87l-18.81,42.23h-7l-18.89-42.23V385.1h-10.12Z"/>
    <path fill="currentColor" d="M1780.91,331.6h-24v18.1h21.3V358H1757v18.9h24v8.25h-34.07V323.35h34.07Z"/>
</svg>