<svg xmlns="http://www.w3.org/2000/svg" viewBox="0 0 830.12 868.33">
    <path fill="currentColor" d="M424.14,825.57c-114.47,0-207.59-93.13-207.59-207.59V261.32c0-114.46,93.12-207.59,207.59-207.59s207.59,93.13,207.59,207.59V618C631.73,732.44,538.6,825.57,424.14,825.57Zm0-713.31c-82.19,0-149.06,66.87-149.06,149.06V618C275.08,700.17,342,767,424.14,767S573.2,700.17,573.2,618V261.32C573.2,179.13,506.33,112.26,424.14,112.26Z"/>
    <path fill="currentColor" d="M578.23,736.49a206.33,206.33,0,0,1-103.45-27.9L165.91,530.27a207.59,207.59,0,0,1-76-283.58c57.24-99.13,184.45-133.21,283.58-76L682.37,349c99.13,57.23,133.22,184.45,76,283.58A206.21,206.21,0,0,1,632.3,729.33,208.85,208.85,0,0,1,578.23,736.49ZM270,201.45A149.18,149.18,0,0,0,140.61,276C99.52,347.13,124,438.48,195.17,479.58L504,657.9c71.18,41.1,162.53,16.63,203.62-54.56h0A149.06,149.06,0,0,0,653.1,399.72L344.23,221.39A148.22,148.22,0,0,0,270,201.45Z"/>
    <path fill="currentColor" d="M270,736.49A208.9,208.9,0,0,1,216,729.33,207.59,207.59,0,0,1,165.91,349L474.78,170.7c99.12-57.23,226.34-23.14,283.57,76h0c57.24,99.13,23.15,226.34-76,283.58L373.5,708.59A206.37,206.37,0,0,1,270,736.49Zm308.28-535A148.15,148.15,0,0,0,504,221.39L195.17,399.72A149.06,149.06,0,0,0,344.23,657.9L653.1,479.58c71.18-41.1,95.66-132.44,54.56-203.62L733,261.32,707.66,276A149.15,149.15,0,0,0,578.32,201.45Z"/>
</svg>