<svg width="16" height="16" viewBox="0 0 16 16" fill="none" xmlns="http://www.w3.org/2000/svg">
<g id="down-fold">
<path id="Vector" fill-rule="evenodd" clip-rule="evenodd" d="M7.99998 3.06665C7.6686 3.06665 7.39998 3.33528 7.39998 3.66665V8.75161L5.04146 6.8648C4.7827 6.65779 4.40513 6.69974 4.19812 6.9585C3.99112 7.21726 4.03307 7.59483 4.29183 7.80184L7.62516 10.4685C7.84429 10.6438 8.15566 10.6438 8.37479 10.4685L11.7081 7.80184C11.9669 7.59483 12.0088 7.21726 11.8018 6.9585C11.5948 6.69974 11.2172 6.65779 10.9585 6.8648L8.59998 8.75161V3.66665C8.59998 3.33528 8.33135 3.06665 7.99998 3.06665ZM14.6 12.3333C14.6 12.0019 14.3313 11.7333 14 11.7333H1.99998C1.6686 11.7333 1.39998 12.0019 1.39998 12.3333C1.39998 12.6647 1.6686 12.9333 1.99998 12.9333H14C14.3313 12.9333 14.6 12.6647 14.6 12.3333Z" fill="#868692"/>
</g>
</svg>
