<svg width="75" height="27" viewBox="0 0 75 27" fill="none" xmlns="http://www.w3.org/2000/svg">
<path fill-rule="evenodd" clip-rule="evenodd" d="M75 6.2878V8.31627H74.6657V6.78359L74.0417 8.31627H73.7744L73.1287 6.78359V8.31627H72.8162V6.2878H73.2401L73.8857 7.88809L74.5769 6.2878H75ZM70.9448 6.2878H72.393V6.58076H71.858V8.31627H71.5017V6.58076H70.9448V6.2878ZM71.5017 14.559V20.9371H68.7388V14.8747C68.7388 13.2068 67.8924 12.1248 66.2654 12.1248C64.639 12.1248 63.6589 13.2519 63.6589 15.1224V20.9371H60.8957V6.2878H63.6589V11.0884C64.3491 10.2546 65.4413 9.80386 66.9341 9.80386C69.4963 9.80386 71.5017 11.6742 71.5017 14.559V14.559ZM58.4894 18.5481H59.5812V20.9371H58.1327C55.5034 20.9371 54.3674 19.6752 54.3674 17.0832V12.3279H53.0751V9.96141H54.3674V6.96387H57.1301V9.96141H59.5586V12.3279H57.1301V17.1058C57.1301 18.0751 57.42 18.5481 58.4894 18.5481V18.5481ZM48.9749 15.4607C48.9749 13.5674 47.8609 12.2603 46.1007 12.2603C44.3408 12.2603 43.2486 13.4998 43.2486 15.4607C43.2486 17.2861 44.2294 18.6157 46.1007 18.6157C47.7944 18.6157 48.9749 17.3763 48.9749 15.4607V15.4607ZM48.9749 9.96141H51.7383V20.9371H48.9749V19.6976C48.2401 20.5766 47.0811 21.0724 45.4548 21.0724C42.5132 21.0724 40.4416 18.7284 40.4416 15.4606C40.4416 12.2152 42.4689 9.82614 45.4548 9.82614C47.0365 9.82614 48.2401 10.3896 48.9749 11.3361V9.96141ZM36.8765 11.6519C36.8765 10.1192 36.0071 9.21771 34.4252 9.21771H32.2192V14.1986H34.4252C36.0071 14.1986 36.8765 13.2972 36.8765 11.6519V11.6519ZM39.6836 11.6519C39.6836 14.6494 37.7227 16.4297 34.7147 16.4297H32.2193V20.9371H29.4563V6.96387H34.7147C37.7677 6.96387 39.6836 8.76699 39.6836 11.6519V11.6519ZM18.3823 20.9371H21.1453V9.96141H18.3823V20.9371ZM21.4573 6.96388C21.4573 7.95547 20.7441 8.63155 19.7639 8.63155C18.7836 8.63155 18.0704 7.95547 18.0704 6.96388C18.0704 5.94975 18.7836 5.25114 19.7639 5.25114C20.7441 5.25114 21.4573 5.94975 21.4573 6.96388V6.96388ZM13.4359 6.96387H16.1989V15.1451C16.1989 18.8411 14.1265 21.0724 10.6283 21.0724C7.19695 21.0724 5.16923 18.8861 5.16923 15.1451V6.96387H7.9322V15.1451C7.9322 17.1959 8.77885 18.4354 10.6952 18.4354C12.5447 18.4354 13.4359 17.2636 13.4359 15.1451V6.96387ZM2.76299 24.2051H23.9305V2.79447H2.76299V24.2051ZM0 27H26.6936V0H0V27Z" fill="#FA4616"/>
</svg>
