<svg width="16" height="17" viewBox="0 0 16 17" fill="none" xmlns="http://www.w3.org/2000/svg">
<path fill-rule="evenodd" clip-rule="evenodd" d="M8.04388 1.875C4.39262 1.875 1.46276 4.91512 1.46276 8.62766C1.46276 9.2043 1.58013 9.7195 1.68946 10.1678C1.6997 10.2097 1.70982 10.251 1.7198 10.2917L1.72009 10.2928L1.7201 10.2929C1.82066 10.7026 1.90565 11.049 1.93136 11.416C1.93878 11.522 1.91792 11.6803 1.85775 11.9008C1.80382 12.0985 1.73111 12.3032 1.65268 12.5239C1.6451 12.5453 1.63746 12.5668 1.62979 12.5884C1.54918 12.8157 1.45607 13.0813 1.40923 13.3197C1.38541 13.4409 1.36672 13.5867 1.37876 13.7378C1.39097 13.891 1.43825 14.0882 1.58266 14.2634C1.73766 14.4514 1.94093 14.5242 2.0757 14.5551C2.21665 14.5874 2.35929 14.5917 2.48115 14.5872C2.72609 14.5782 3.00221 14.5284 3.25567 14.4719C3.83639 14.3424 4.03994 14.2994 4.13626 14.2939L4.15976 14.2925C4.20526 14.2898 4.233 14.2882 4.2557 14.2873C4.2783 14.2864 4.28406 14.2867 4.28442 14.2867L4.28444 14.2867C4.28457 14.2868 4.29008 14.2869 4.31299 14.2901C4.33546 14.2933 4.36287 14.2977 4.40782 14.3048L4.43119 14.3085C4.45817 14.3128 4.54675 14.3347 4.7593 14.4012C4.95848 14.4636 5.2303 14.5532 5.60202 14.6758C6.34772 14.9218 7.23402 15.125 7.79388 15.125C11.4872 15.125 14.625 12.4008 14.625 8.62766C14.625 4.91512 11.6951 1.875 8.04388 1.875ZM2.71276 8.62766C2.71276 5.57178 5.11619 3.125 8.04388 3.125C10.9716 3.125 13.375 5.57178 13.375 8.62766C13.375 11.6229 10.8878 13.875 7.79388 13.875C7.43797 13.875 6.70496 13.7233 5.99353 13.4887L5.98794 13.4869C5.62304 13.3665 5.34216 13.2739 5.1328 13.2083C4.93574 13.1466 4.75962 13.0949 4.62686 13.0739C4.61713 13.0724 4.60739 13.0708 4.59764 13.0692L4.59684 13.0691C4.51387 13.0558 4.43032 13.0424 4.34642 13.0383C4.26252 13.0341 4.17806 13.0392 4.09419 13.0442C4.08406 13.0448 4.07394 13.0454 4.06382 13.046C3.85049 13.0583 3.53449 13.1289 3.07164 13.2322L3.0716 13.2322L2.98366 13.2518C2.88175 13.2745 2.78848 13.293 2.70497 13.307C2.7329 13.2199 2.7674 13.1204 2.80792 13.0062C2.81575 12.9841 2.82377 12.9615 2.83194 12.9386L2.83197 12.9385L2.83198 12.9385L2.83199 12.9384L2.83199 12.9384C2.90781 12.7253 2.9966 12.4757 3.06368 12.2298C3.13697 11.9611 3.20033 11.6432 3.1783 11.3287C3.14466 10.8482 3.0333 10.3968 2.93591 10.002L2.93584 10.0017L2.93574 10.0013L2.9356 10.0007C2.92481 9.95697 2.91418 9.91391 2.90386 9.87158C2.79607 9.42962 2.71276 9.04149 2.71276 8.62766ZM4.99996 9.4375C5.51772 9.4375 5.93746 9.01777 5.93746 8.5C5.93746 7.98223 5.51772 7.5625 4.99996 7.5625C4.48219 7.5625 4.06246 7.98223 4.06246 8.5C4.06246 9.01777 4.48219 9.4375 4.99996 9.4375ZM8.93746 8.5C8.93746 9.01777 8.51772 9.4375 7.99996 9.4375C7.48219 9.4375 7.06246 9.01777 7.06246 8.5C7.06246 7.98223 7.48219 7.5625 7.99996 7.5625C8.51772 7.5625 8.93746 7.98223 8.93746 8.5ZM11 9.4375C11.5177 9.4375 11.9375 9.01777 11.9375 8.5C11.9375 7.98223 11.5177 7.5625 11 7.5625C10.4822 7.5625 10.0625 7.98223 10.0625 8.5C10.0625 9.01777 10.4822 9.4375 11 9.4375Z" fill="#3767EB"/>
</svg>
