<svg width="16" height="17" viewBox="0 0 16 17" fill="none" xmlns="http://www.w3.org/2000/svg">
<path fill-rule="evenodd" clip-rule="evenodd" d="M3.5 3.125C3.01675 3.125 2.625 3.51675 2.625 4V11.1522C2.625 11.6354 3.01675 12.0272 3.5 12.0272H6.10526C6.56192 12.0272 6.99792 12.136 7.375 12.3389V5C7.375 3.96447 6.53553 3.125 5.5 3.125H3.5ZM8 3.1247C7.42986 2.36584 6.52225 1.875 5.5 1.875H3.5C2.3264 1.875 1.375 2.82639 1.375 4V11.1522C1.375 12.3258 2.32639 13.2772 3.5 13.2772H6.10526C6.84798 13.2772 7.375 13.7491 7.375 14.5C7.375 14.8452 7.65482 15.125 8 15.125C8.34518 15.125 8.625 14.8452 8.625 14.5C8.625 13.7491 9.15202 13.2772 9.89474 13.2772H12.5C13.6736 13.2772 14.625 12.3258 14.625 11.1522V4C14.625 2.82639 13.6736 1.875 12.5 1.875H10.5C9.47775 1.875 8.57014 2.36584 8 3.1247ZM8.625 12.3389C9.00208 12.136 9.43808 12.0272 9.89474 12.0272H12.5C12.9832 12.0272 13.375 11.6354 13.375 11.1522V4C13.375 3.51675 12.9832 3.125 12.5 3.125H10.5C9.46447 3.125 8.625 3.96447 8.625 5V12.3389Z" fill="#3767EB"/>
</svg>
