<svg width="16" height="17" viewBox="0 0 16 17" fill="none" xmlns="http://www.w3.org/2000/svg">
<path fill-rule="evenodd" clip-rule="evenodd" d="M1.375 8.5C1.375 4.84111 4.34111 1.875 8 1.875C11.6589 1.875 14.625 4.84111 14.625 8.5C14.625 12.1589 11.6589 15.125 8 15.125C4.34111 15.125 1.375 12.1589 1.375 8.5ZM6.07526 3.47988C5.52453 3.69116 5.01742 3.99046 4.57113 4.36056C4.86047 4.59376 5.17399 4.79805 5.50733 4.96907C5.5963 4.64489 5.6975 4.34062 5.80972 4.06006C5.89113 3.85655 5.97961 3.66228 6.07526 3.47988ZM2.65091 7.96883C2.75627 6.89486 3.17771 5.91363 3.82097 5.11942C4.25951 5.48489 4.74683 5.79405 5.2717 6.03569C5.16726 6.64114 5.10071 7.29147 5.07775 7.96883H2.65091ZM6.1409 7.96883C6.16091 7.41858 6.21163 6.89356 6.28787 6.40443C6.83358 6.55232 7.40763 6.63126 8.00001 6.63126C8.59241 6.63126 9.16648 6.55232 9.71221 6.40442C9.78844 6.89356 9.83916 7.41858 9.85918 7.96883H6.1409ZM10.9223 7.96883C10.8994 7.29147 10.8328 6.64114 10.7284 6.03568C11.2532 5.79404 11.7405 5.4849 12.179 5.11945C12.8223 5.91366 13.2437 6.89487 13.3491 7.96883H10.9223ZM10.4927 4.96906C10.8261 4.79805 11.1396 4.59377 11.4289 4.36058C10.9826 3.9905 10.4755 3.6912 9.92484 3.47992C10.0205 3.6623 10.109 3.85656 10.1903 4.06006C10.3026 4.34062 10.4038 4.64488 10.4927 4.96906ZM8.00001 5.56876C8.51945 5.56876 9.02187 5.49643 9.49783 5.36123C9.41181 5.03143 9.31303 4.72762 9.20384 4.45466C9.0015 3.94881 8.77385 3.5751 8.54825 3.33654C8.46294 3.24633 8.38328 3.1806 8.3097 3.13377C8.20721 3.12795 8.10395 3.125 8 3.125C7.89608 3.125 7.79284 3.12795 7.69038 3.13377C7.6168 3.1806 7.53714 3.24633 7.45183 3.33654C7.22622 3.5751 6.99857 3.94881 6.79623 4.45466C6.68705 4.72762 6.58826 5.03143 6.50225 5.36124C6.97819 5.49643 7.48059 5.56876 8.00001 5.56876ZM5.07776 9.03133H2.65093C2.75631 10.1053 3.17777 11.0865 3.82104 11.8807C4.25956 11.5152 4.74687 11.2061 5.27173 10.9644C5.16728 10.359 5.10072 9.70868 5.07776 9.03133ZM5.50736 12.0311C5.17404 12.2021 4.86054 12.4063 4.57121 12.6395C5.01748 13.0096 5.52457 13.3088 6.07526 13.5201C5.97961 13.3377 5.89113 13.1434 5.80972 12.9399C5.69751 12.6594 5.59632 12.3552 5.50736 12.0311ZM6.50228 11.6389C6.97821 11.5037 7.48061 11.4314 8.00001 11.4314C8.51944 11.4314 9.02185 11.5037 9.49779 11.6389C9.41178 11.9687 9.31301 12.2724 9.20384 12.5453C9.0015 13.0512 8.77385 13.4249 8.54825 13.6635C8.46294 13.7537 8.38328 13.8194 8.3097 13.8662C8.20721 13.872 8.10395 13.875 8 13.875C7.89608 13.875 7.79284 13.8721 7.69038 13.8662C7.6168 13.8194 7.53714 13.7537 7.45183 13.6635C7.22622 13.4249 6.99857 13.0512 6.79623 12.5453C6.68706 12.2724 6.58829 11.9686 6.50228 11.6389ZM9.71219 10.5957C9.16646 10.4478 8.5924 10.3689 8.00001 10.3689C7.40764 10.3689 6.8336 10.4478 6.28789 10.5957C6.21165 10.1066 6.16092 9.58157 6.1409 9.03133H9.85917C9.83915 9.58158 9.78842 10.1066 9.71219 10.5957ZM10.4927 12.0311C10.4038 12.3552 10.3026 12.6594 10.1903 12.9399C10.109 13.1434 10.0205 13.3377 9.92484 13.5201C10.4755 13.3088 10.9826 13.0095 11.4288 12.6395C11.1395 12.4063 10.826 12.2021 10.4927 12.0311ZM12.179 11.8806C11.7405 11.5152 11.2532 11.2061 10.7283 10.9644C10.8328 10.359 10.8994 9.70869 10.9223 9.03133H13.3491C13.2437 10.1053 12.8222 11.0865 12.179 11.8806Z" fill="#3767EB"/>
</svg>
