<svg width="96" height="24" viewBox="0 0 96 24" fill="none" xmlns="http://www.w3.org/2000/svg">
<circle cx="12" cy="12" r="12" fill="#6841EA"/>
<mask id="mask0_2253_8338" style="mask-type:alpha" maskUnits="userSpaceOnUse" x="0" y="0" width="25" height="24">
<circle cx="12.0479" cy="12" r="12" fill="#6841EA"/>
</mask>
<g mask="url(#mask0_2253_8338)">
<g filter="url(#filter0_f_2253_8338)">
<circle cx="12.048" cy="-0.311541" r="9.31737" fill="#515FFB"/>
</g>
<g filter="url(#filter1_f_2253_8338)">
<circle cx="22.9221" cy="3.85643" r="9.31737" fill="#4D2BF4"/>
</g>
<g filter="url(#filter2_f_2253_8338)">
<circle cx="2.27543" cy="3.85643" r="9.31737" fill="#6C37EE"/>
</g>
<g filter="url(#filter3_f_2253_8338)">
<circle cx="22.9221" cy="24.9341" r="9.31737" fill="#36BDEF"/>
</g>
<g filter="url(#filter4_f_2253_8338)">
<circle cx="-3.04195" cy="22.539" r="9.31737" fill="#AE3DDF"/>
</g>
</g>
<ellipse cx="12.0479" cy="11.9762" rx="9.72455" ry="8.14371" fill="white"/>
<rect x="6.27548" y="9.07812" width="2.97006" height="5.84431" rx="1.48503" fill="#262626"/>
<path d="M17.7374 9.34823C17.3258 8.93666 16.6585 8.93666 16.247 9.34823L14.2774 11.3321C13.9055 11.7067 13.9066 12.3114 14.2798 12.6846L16.247 14.6517C16.6585 15.0633 17.3258 15.0633 17.7374 14.6517C18.149 14.2402 18.149 13.5729 17.7374 13.1613L16.5761 12L17.7374 10.8387C18.149 10.4271 18.149 9.7598 17.7374 9.34823Z" fill="#262626"/>
<path d="M86.3165 18.6421C85.7405 18.6421 85.2125 18.5401 84.7325 18.3361C84.2645 18.1321 83.8565 17.8201 83.5085 17.4001C83.1725 16.9801 82.9145 16.4581 82.7345 15.8341C82.5545 15.2101 82.4645 14.4841 82.4645 13.6561C82.4645 12.5401 82.6205 11.6161 82.9325 10.8841C83.2565 10.1401 83.7065 9.5821 84.2825 9.2101C84.8705 8.8381 85.5485 8.6521 86.3165 8.6521C86.8205 8.6521 87.2705 8.7301 87.6665 8.8861C88.0745 9.0421 88.4225 9.2581 88.7105 9.5341C89.0105 9.8101 89.2325 10.1341 89.3765 10.5061H89.5205L89.6285 8.8321H92.1665V18.4801H89.5205V16.7881H89.3765C89.1605 17.3521 88.7825 17.8021 88.2425 18.1381C87.7025 18.4741 87.0605 18.6421 86.3165 18.6421ZM87.3245 16.5001C87.8165 16.5001 88.2185 16.3861 88.5305 16.1581C88.8545 15.9301 89.0945 15.6361 89.2505 15.2761C89.4065 14.9041 89.4845 14.5141 89.4845 14.1061V13.1881C89.4845 12.7681 89.4065 12.3781 89.2505 12.0181C89.0945 11.6581 88.8545 11.3641 88.5305 11.1361C88.2185 10.9081 87.8165 10.7941 87.3245 10.7941C86.8925 10.7941 86.5145 10.8961 86.1905 11.1001C85.8665 11.3041 85.6145 11.6161 85.4345 12.0361C85.2545 12.4561 85.1645 12.9961 85.1645 13.6561C85.1645 14.2921 85.2545 14.8261 85.4345 15.2581C85.6145 15.6781 85.8665 15.9901 86.1905 16.1941C86.5145 16.3981 86.8925 16.5001 87.3245 16.5001Z" fill="#262626"/>
<path d="M77.1141 18.6421C76.3941 18.6421 75.7401 18.5281 75.1521 18.3001C74.5641 18.0601 74.0541 17.7181 73.6221 17.2741C73.2021 16.8301 72.8781 16.3021 72.6501 15.6901C72.4341 15.0781 72.3261 14.4001 72.3261 13.6561C72.3261 12.6361 72.5241 11.7541 72.9201 11.0101C73.3161 10.2661 73.8801 9.6901 74.6121 9.2821C75.3441 8.8621 76.2081 8.6521 77.2041 8.6521C78.0321 8.6521 78.7641 8.8081 79.4001 9.1201C80.0481 9.4321 80.5641 9.8641 80.9481 10.4161C81.3321 10.9681 81.5421 11.6101 81.5781 12.3421H78.9861C78.9381 12.0061 78.8241 11.7241 78.6441 11.4961C78.4761 11.2681 78.2601 11.1001 77.9961 10.9921C77.7441 10.8721 77.4561 10.8121 77.1321 10.8121C76.6761 10.8121 76.2861 10.9321 75.9621 11.1721C75.6381 11.4001 75.3981 11.7301 75.2421 12.1621C75.0861 12.5821 75.0081 13.0801 75.0081 13.6561C75.0081 14.2921 75.0921 14.8201 75.2601 15.2401C75.4401 15.6481 75.6861 15.9601 75.9981 16.1761C76.3221 16.3801 76.6941 16.4821 77.1141 16.4821C77.4981 16.4821 77.8221 16.4161 78.0861 16.2841C78.3621 16.1521 78.5781 15.9661 78.7341 15.7261C78.9021 15.4861 78.9981 15.2161 79.0221 14.9161H81.5961C81.5601 15.6721 81.3441 16.3321 80.9481 16.8961C80.5641 17.4481 80.0421 17.8801 79.3821 18.1921C78.7221 18.4921 77.9661 18.6421 77.1141 18.6421Z" fill="#262626"/>
<path d="M68.1603 18.4799V8.83191H70.8063V18.4799H68.1603ZM68.1603 7.58991V5.35791H70.8063V7.58991H68.1603Z" fill="#262626"/>
<path d="M56.9321 18.4801V8.8321H59.4701L59.5781 10.5781H59.6861C59.9501 9.9301 60.3581 9.4501 60.9101 9.1381C61.4621 8.8141 62.0801 8.6521 62.7641 8.6521C63.2441 8.6521 63.6881 8.7301 64.0961 8.8861C64.5161 9.0301 64.8761 9.2581 65.1761 9.5701C65.4881 9.8821 65.7281 10.2961 65.8961 10.8121C66.0761 11.3161 66.1661 11.9281 66.1661 12.6481V18.4801H63.5201V13.2241C63.5201 12.6841 63.4541 12.2341 63.3221 11.8741C63.2021 11.5141 63.0101 11.2501 62.7461 11.0821C62.4821 10.9021 62.1341 10.8121 61.7021 10.8121C61.2461 10.8121 60.8621 10.9201 60.5501 11.1361C60.2381 11.3521 59.9981 11.6341 59.8301 11.9821C59.6621 12.3301 59.5781 12.7081 59.5781 13.1161V18.4801H56.9321Z" fill="#262626"/>
<path d="M50.6027 18.6421C49.8707 18.6421 49.2107 18.5341 48.6227 18.3181C48.0347 18.0901 47.5247 17.7601 47.0927 17.3281C46.6607 16.8961 46.3307 16.3741 46.1027 15.7621C45.8747 15.1381 45.7607 14.4361 45.7607 13.6561C45.7607 12.6601 45.9527 11.7901 46.3367 11.0461C46.7207 10.2901 47.2727 9.7021 47.9927 9.2821C48.7127 8.8621 49.5827 8.6521 50.6027 8.6521C51.3227 8.6521 51.9767 8.7661 52.5647 8.9941C53.1527 9.2221 53.6567 9.5521 54.0767 9.9841C54.5087 10.4161 54.8387 10.9381 55.0667 11.5501C55.3067 12.1621 55.4267 12.8641 55.4267 13.6561C55.4267 14.6401 55.2347 15.5101 54.8507 16.2661C54.4667 17.0101 53.9147 17.5921 53.1947 18.0121C52.4867 18.4321 51.6227 18.6421 50.6027 18.6421ZM50.5847 16.5001C51.0167 16.5001 51.3947 16.3981 51.7187 16.1941C52.0547 15.9781 52.3067 15.6601 52.4747 15.2401C52.6547 14.8201 52.7447 14.2921 52.7447 13.6561C52.7447 13.1761 52.6967 12.7621 52.6007 12.4141C52.5047 12.0541 52.3607 11.7541 52.1687 11.5141C51.9767 11.2741 51.7487 11.1001 51.4847 10.9921C51.2207 10.8721 50.9267 10.8121 50.6027 10.8121C50.1707 10.8121 49.7867 10.9141 49.4507 11.1181C49.1267 11.3221 48.8747 11.6341 48.6947 12.0541C48.5147 12.4741 48.4247 13.0081 48.4247 13.6561C48.4247 14.1361 48.4727 14.5561 48.5687 14.9161C48.6767 15.2641 48.8267 15.5581 49.0187 15.7981C49.2107 16.0261 49.4387 16.2001 49.7027 16.3201C49.9667 16.4401 50.2607 16.5001 50.5847 16.5001Z" fill="#262626"/>
<path d="M30 18.4799V5.35791H34.248L36.948 13.9439H37.056L39.72 5.35791H43.986V18.4799H41.268V13.2959L41.304 8.29191H41.178L38.1 18.4799H35.904L32.826 8.29191H32.682L32.736 13.3319V18.4799H30Z" fill="#262626"/>
<defs>
<filter id="filter0_f_2253_8338" x="-6.85025" y="-19.2097" width="37.7964" height="37.7964" filterUnits="userSpaceOnUse" color-interpolation-filters="sRGB">
<feFlood flood-opacity="0" result="BackgroundImageFix"/>
<feBlend mode="normal" in="SourceGraphic" in2="BackgroundImageFix" result="shape"/>
<feGaussianBlur stdDeviation="4.79042" result="effect1_foregroundBlur_2253_8338"/>
</filter>
<filter id="filter1_f_2253_8338" x="4.02393" y="-15.0418" width="37.7964" height="37.7964" filterUnits="userSpaceOnUse" color-interpolation-filters="sRGB">
<feFlood flood-opacity="0" result="BackgroundImageFix"/>
<feBlend mode="normal" in="SourceGraphic" in2="BackgroundImageFix" result="shape"/>
<feGaussianBlur stdDeviation="4.79042" result="effect1_foregroundBlur_2253_8338"/>
</filter>
<filter id="filter2_f_2253_8338" x="-16.6228" y="-15.0418" width="37.7964" height="37.7964" filterUnits="userSpaceOnUse" color-interpolation-filters="sRGB">
<feFlood flood-opacity="0" result="BackgroundImageFix"/>
<feBlend mode="normal" in="SourceGraphic" in2="BackgroundImageFix" result="shape"/>
<feGaussianBlur stdDeviation="4.79042" result="effect1_foregroundBlur_2253_8338"/>
</filter>
<filter id="filter3_f_2253_8338" x="8.81435" y="10.8263" width="28.2156" height="28.2156" filterUnits="userSpaceOnUse" color-interpolation-filters="sRGB">
<feFlood flood-opacity="0" result="BackgroundImageFix"/>
<feBlend mode="normal" in="SourceGraphic" in2="BackgroundImageFix" result="shape"/>
<feGaussianBlur stdDeviation="2.39521" result="effect1_foregroundBlur_2253_8338"/>
</filter>
<filter id="filter4_f_2253_8338" x="-21.9402" y="3.64084" width="37.7964" height="37.7964" filterUnits="userSpaceOnUse" color-interpolation-filters="sRGB">
<feFlood flood-opacity="0" result="BackgroundImageFix"/>
<feBlend mode="normal" in="SourceGraphic" in2="BackgroundImageFix" result="shape"/>
<feGaussianBlur stdDeviation="4.79042" result="effect1_foregroundBlur_2253_8338"/>
</filter>
</defs>
</svg>
