<svg width="96" height="24" viewBox="0 0 96 24" fill="none" xmlns="http://www.w3.org/2000/svg">
<circle cx="12" cy="12" r="12" fill="#6841EA"/>
<mask id="mask0_2361_845" style="mask-type:alpha" maskUnits="userSpaceOnUse" x="0" y="0" width="25" height="24">
<circle cx="12.0479" cy="12" r="12" fill="#6841EA"/>
</mask>
<g mask="url(#mask0_2361_845)">
<g filter="url(#filter0_f_2361_845)">
<circle cx="12.0478" cy="-0.311296" r="9.31737" fill="#515FFB"/>
</g>
<g filter="url(#filter1_f_2361_845)">
<circle cx="22.9221" cy="3.85631" r="9.31737" fill="#4D2BF4"/>
</g>
<g filter="url(#filter2_f_2361_845)">
<circle cx="2.27537" cy="3.85631" r="9.31737" fill="#6C37EE"/>
</g>
<g filter="url(#filter3_f_2361_845)">
<circle cx="22.9221" cy="24.9342" r="9.31737" fill="#36BDEF"/>
</g>
<g filter="url(#filter4_f_2361_845)">
<circle cx="-3.04201" cy="22.5389" r="9.31737" fill="#AE3DDF"/>
</g>
</g>
<ellipse cx="12.0478" cy="11.976" rx="9.72455" ry="8.14371" fill="white"/>
<rect x="6.27539" y="9.07782" width="2.97006" height="5.84431" rx="1.48503" fill="#262626"/>
<path d="M17.7373 9.34823C17.3257 8.93666 16.6584 8.93666 16.2469 9.34823L14.2773 11.3321C13.9055 11.7067 13.9066 12.3114 14.2797 12.6846L16.2469 14.6517C16.6584 15.0633 17.3257 15.0633 17.7373 14.6517C18.1489 14.2402 18.1489 13.5729 17.7373 13.1613L16.576 12L17.7373 10.8387C18.1489 10.4271 18.1489 9.7598 17.7373 9.34823Z" fill="#262626"/>
<path d="M86.3164 18.642C85.7404 18.642 85.2124 18.54 84.7324 18.336C84.2644 18.132 83.8564 17.82 83.5084 17.4C83.1724 16.98 82.9144 16.458 82.7344 15.834C82.5544 15.21 82.4644 14.484 82.4644 13.656C82.4644 12.54 82.6204 11.616 82.9324 10.884C83.2564 10.14 83.7064 9.58198 84.2824 9.20998C84.8704 8.83798 85.5484 8.65198 86.3164 8.65198C86.8204 8.65198 87.2704 8.72998 87.6664 8.88598C88.0744 9.04198 88.4224 9.25798 88.7104 9.53398C89.0104 9.80998 89.2324 10.134 89.3764 10.506H89.5204L89.6284 8.83198H92.1664V18.48H89.5204V16.788H89.3764C89.1604 17.352 88.7824 17.802 88.2424 18.138C87.7024 18.474 87.0604 18.642 86.3164 18.642ZM87.3244 16.5C87.8164 16.5 88.2184 16.386 88.5304 16.158C88.8544 15.93 89.0944 15.636 89.2504 15.276C89.4064 14.904 89.4844 14.514 89.4844 14.106V13.188C89.4844 12.768 89.4064 12.378 89.2504 12.018C89.0944 11.658 88.8544 11.364 88.5304 11.136C88.2184 10.908 87.8164 10.794 87.3244 10.794C86.8924 10.794 86.5144 10.896 86.1904 11.1C85.8664 11.304 85.6144 11.616 85.4344 12.036C85.2544 12.456 85.1644 12.996 85.1644 13.656C85.1644 14.292 85.2544 14.826 85.4344 15.258C85.6144 15.678 85.8664 15.99 86.1904 16.194C86.5144 16.398 86.8924 16.5 87.3244 16.5Z" fill="white"/>
<path d="M77.1142 18.642C76.3942 18.642 75.7402 18.528 75.1522 18.3C74.5642 18.06 74.0542 17.718 73.6222 17.274C73.2022 16.83 72.8782 16.302 72.6502 15.69C72.4342 15.078 72.3262 14.4 72.3262 13.656C72.3262 12.636 72.5242 11.754 72.9202 11.01C73.3162 10.266 73.8802 9.68998 74.6122 9.28198C75.3442 8.86198 76.2082 8.65198 77.2042 8.65198C78.0322 8.65198 78.7642 8.80798 79.4002 9.11998C80.0482 9.43198 80.5642 9.86398 80.9482 10.416C81.3322 10.968 81.5422 11.61 81.5782 12.342H78.9862C78.9382 12.006 78.8242 11.724 78.6442 11.496C78.4762 11.268 78.2602 11.1 77.9962 10.992C77.7442 10.872 77.4562 10.812 77.1322 10.812C76.6762 10.812 76.2862 10.932 75.9622 11.172C75.6382 11.4 75.3982 11.73 75.2422 12.162C75.0862 12.582 75.0082 13.08 75.0082 13.656C75.0082 14.292 75.0922 14.82 75.2602 15.24C75.4402 15.648 75.6862 15.96 75.9982 16.176C76.3222 16.38 76.6942 16.482 77.1142 16.482C77.4982 16.482 77.8222 16.416 78.0862 16.284C78.3622 16.152 78.5782 15.966 78.7342 15.726C78.9022 15.486 78.9982 15.216 79.0222 14.916H81.5962C81.5602 15.672 81.3442 16.332 80.9482 16.896C80.5642 17.448 80.0422 17.88 79.3822 18.192C78.7222 18.492 77.9662 18.642 77.1142 18.642Z" fill="white"/>
<path d="M68.1602 18.48V8.83203H70.8062V18.48H68.1602ZM68.1602 7.59003V5.35803H70.8062V7.59003H68.1602Z" fill="white"/>
<path d="M56.9321 18.48V8.83198H59.4701L59.5781 10.578H59.6861C59.9501 9.92998 60.3581 9.44998 60.9101 9.13798C61.4621 8.81398 62.0801 8.65198 62.7641 8.65198C63.2441 8.65198 63.6881 8.72998 64.0961 8.88598C64.5161 9.02998 64.8761 9.25798 65.1761 9.56998C65.4881 9.88198 65.7281 10.296 65.8961 10.812C66.0761 11.316 66.1661 11.928 66.1661 12.648V18.48H63.5201V13.224C63.5201 12.684 63.4541 12.234 63.3221 11.874C63.2021 11.514 63.0101 11.25 62.7461 11.082C62.4821 10.902 62.1341 10.812 61.7021 10.812C61.2461 10.812 60.8621 10.92 60.5501 11.136C60.2381 11.352 59.9981 11.634 59.8301 11.982C59.6621 12.33 59.5781 12.708 59.5781 13.116V18.48H56.9321Z" fill="white"/>
<path d="M50.6027 18.642C49.8707 18.642 49.2107 18.534 48.6227 18.318C48.0347 18.09 47.5247 17.76 47.0927 17.328C46.6607 16.896 46.3307 16.374 46.1027 15.762C45.8747 15.138 45.7607 14.436 45.7607 13.656C45.7607 12.66 45.9527 11.79 46.3367 11.046C46.7207 10.29 47.2727 9.70198 47.9927 9.28198C48.7127 8.86198 49.5827 8.65198 50.6027 8.65198C51.3227 8.65198 51.9767 8.76598 52.5647 8.99398C53.1527 9.22198 53.6567 9.55198 54.0767 9.98398C54.5087 10.416 54.8387 10.938 55.0667 11.55C55.3067 12.162 55.4267 12.864 55.4267 13.656C55.4267 14.64 55.2347 15.51 54.8507 16.266C54.4667 17.01 53.9147 17.592 53.1947 18.012C52.4867 18.432 51.6227 18.642 50.6027 18.642ZM50.5847 16.5C51.0167 16.5 51.3947 16.398 51.7187 16.194C52.0547 15.978 52.3067 15.66 52.4747 15.24C52.6547 14.82 52.7447 14.292 52.7447 13.656C52.7447 13.176 52.6967 12.762 52.6007 12.414C52.5047 12.054 52.3607 11.754 52.1687 11.514C51.9767 11.274 51.7487 11.1 51.4847 10.992C51.2207 10.872 50.9267 10.812 50.6027 10.812C50.1707 10.812 49.7867 10.914 49.4507 11.118C49.1267 11.322 48.8747 11.634 48.6947 12.054C48.5147 12.474 48.4247 13.008 48.4247 13.656C48.4247 14.136 48.4727 14.556 48.5687 14.916C48.6767 15.264 48.8267 15.558 49.0187 15.798C49.2107 16.026 49.4387 16.2 49.7027 16.32C49.9667 16.44 50.2607 16.5 50.5847 16.5Z" fill="white"/>
<path d="M30 18.48V5.35803H34.248L36.948 13.944H37.056L39.72 5.35803H43.986V18.48H41.268V13.296L41.304 8.29203H41.178L38.1 18.48H35.904L32.826 8.29203H32.682L32.736 13.332V18.48H30Z" fill="white"/>
<defs>
<filter id="filter0_f_2361_845" x="-6.85037" y="-19.2095" width="37.7964" height="37.7964" filterUnits="userSpaceOnUse" color-interpolation-filters="sRGB">
<feFlood flood-opacity="0" result="BackgroundImageFix"/>
<feBlend mode="normal" in="SourceGraphic" in2="BackgroundImageFix" result="shape"/>
<feGaussianBlur stdDeviation="4.79042" result="effect1_foregroundBlur_2361_845"/>
</filter>
<filter id="filter1_f_2361_845" x="4.0239" y="-15.0419" width="37.7964" height="37.7964" filterUnits="userSpaceOnUse" color-interpolation-filters="sRGB">
<feFlood flood-opacity="0" result="BackgroundImageFix"/>
<feBlend mode="normal" in="SourceGraphic" in2="BackgroundImageFix" result="shape"/>
<feGaussianBlur stdDeviation="4.79042" result="effect1_foregroundBlur_2361_845"/>
</filter>
<filter id="filter2_f_2361_845" x="-16.6228" y="-15.0419" width="37.7964" height="37.7964" filterUnits="userSpaceOnUse" color-interpolation-filters="sRGB">
<feFlood flood-opacity="0" result="BackgroundImageFix"/>
<feBlend mode="normal" in="SourceGraphic" in2="BackgroundImageFix" result="shape"/>
<feGaussianBlur stdDeviation="4.79042" result="effect1_foregroundBlur_2361_845"/>
</filter>
<filter id="filter3_f_2361_845" x="8.81432" y="10.8264" width="28.2156" height="28.2155" filterUnits="userSpaceOnUse" color-interpolation-filters="sRGB">
<feFlood flood-opacity="0" result="BackgroundImageFix"/>
<feBlend mode="normal" in="SourceGraphic" in2="BackgroundImageFix" result="shape"/>
<feGaussianBlur stdDeviation="2.39521" result="effect1_foregroundBlur_2361_845"/>
</filter>
<filter id="filter4_f_2361_845" x="-21.9402" y="3.64072" width="37.7964" height="37.7964" filterUnits="userSpaceOnUse" color-interpolation-filters="sRGB">
<feFlood flood-opacity="0" result="BackgroundImageFix"/>
<feBlend mode="normal" in="SourceGraphic" in2="BackgroundImageFix" result="shape"/>
<feGaussianBlur stdDeviation="4.79042" result="effect1_foregroundBlur_2361_845"/>
</filter>
</defs>
</svg>
