<svg xmlns="http://www.w3.org/2000/svg" viewBox="0 0 846.22 846.22" style="padding:1px;">
    <path
            fill="#14a17e"
            d="M430,819.32c-114.47,0-207.59-93.13-207.59-207.59V255.07c0-114.46,93.12-207.59,207.59-207.59s207.59,93.13,207.59,207.59V611.73C637.61,726.19,544.49,819.32,430,819.32ZM430,106C347.83,106,281,172.88,281,255.07V611.73c0,82.19,66.87,149.06,149.06,149.06s149.06-66.87,149.06-149.06V255.07C579.08,172.88,512.21,106,430,106Z"/>
    <path
            fill="#14a17e"
            d="M584.12,730.25a206.35,206.35,0,0,1-103.46-27.91L171.79,524a207.61,207.61,0,0,1-76-283.58c57.24-99.13,184.45-133.21,283.58-76L688.25,342.78c99.13,57.24,133.22,184.45,76,283.58a206.21,206.21,0,0,1-126.05,96.72A208.84,208.84,0,0,1,584.12,730.25Zm-308.29-535a149.16,149.16,0,0,0-129.34,74.5c-41.09,71.18-16.62,162.52,54.56,203.62L509.92,651.65c71.18,41.1,162.53,16.63,203.62-54.56h0A149.06,149.06,0,0,0,659,393.47L350.11,215.15A148.12,148.12,0,0,0,275.83,195.21Z"/>
    <path
            fill="#14a17e"
            d="M275.92,730.25a208.79,208.79,0,0,1-54.06-7.17,207.59,207.59,0,0,1-50.07-380.3L480.66,164.46c99.12-57.24,226.34-23.15,283.57,76h0c57.24,99.13,23.15,226.34-76,283.58L379.38,702.34A206.38,206.38,0,0,1,275.92,730.25Zm308.28-535a148.15,148.15,0,0,0-74.28,19.94L201.05,393.47A149.06,149.06,0,1,0,350.11,651.65L659,473.33c71.18-41.1,95.66-132.44,54.56-203.62l25.35-14.64-25.35,14.64A149.13,149.13,0,0,0,584.2,195.21Z"/>
</svg>