<svg width="34" height="34" viewBox="0 0 34 34" fill="none" xmlns="http://www.w3.org/2000/svg">
<path fill-rule="evenodd" clip-rule="evenodd" d="M19.5238 5.57937C18.3674 5.10038 17.1108 4.91397 15.8651 5.03665C14.6195 5.15934 13.4233 5.58733 12.3826 6.28271C11.3419 6.9781 10.4887 7.91941 9.89872 9.02328C9.30869 10.1271 9 11.3595 9 12.6112L12.8056 12.6112C12.8056 11.9853 12.9599 11.3692 13.2549 10.8172C13.55 10.2653 13.9765 9.79463 14.4969 9.44693C15.0172 9.09924 15.6153 8.88525 16.2381 8.8239C16.861 8.76256 17.4893 8.85577 18.0675 9.09526C18.6457 9.33476 19.1559 9.71315 19.5529 10.1969C19.9499 10.6807 20.2215 11.2549 20.3436 11.8687C20.4657 12.4825 20.4345 13.117 20.2529 13.7159C20.0712 14.3147 19.7446 14.8596 19.3021 15.3021L15.2657 19.3385L14.7084 19.8958V20.684V22.1251H18.5139V21.4722L21.993 17.9931C22.8781 17.108 23.5312 16.0183 23.8946 14.8206C24.2579 13.6228 24.3202 12.3539 24.0761 11.1263C23.8319 9.89868 23.2887 8.75024 22.4947 7.78269C21.7006 6.81514 20.6802 6.05836 19.5238 5.57937ZM16.6112 29.7364C17.6621 29.7364 18.514 28.8845 18.514 27.8336C18.514 26.7827 17.6621 25.9308 16.6112 25.9308C15.5604 25.9308 14.7085 26.7827 14.7085 27.8336C14.7085 28.8845 15.5604 29.7364 16.6112 29.7364Z" fill="white"/>
</svg>
