<svg width="173" height="18" viewBox="0 0 173 18" fill="none" xmlns="http://www.w3.org/2000/svg">
<path fill-rule="evenodd" clip-rule="evenodd" d="M44.4755 11.5119L42.1651 10.1539L41.9934 10.4199C41.4668 11.2383 40.747 11.6536 39.8551 11.6529C38.3272 11.6521 37.1753 10.5114 37.176 8.99953C37.1772 7.488 38.3299 6.34885 39.8582 6.34961C40.7628 6.35037 41.4423 6.74326 41.9969 7.58718L42.1694 7.84936L44.4905 6.4883L44.29 6.20104C43.1811 4.612 41.7319 3.83952 39.8598 3.83838C36.3206 3.83686 34.4094 6.49514 34.4082 8.99763C34.4067 11.5005 36.3145 14.1614 39.8536 14.1633C41.657 14.1641 43.3581 13.2571 44.2942 11.7954L44.4755 11.5119Z" fill="#C01818"/>
<path fill-rule="evenodd" clip-rule="evenodd" d="M50.9209 5.88207L52.2138 9.09358L49.6099 9.09168L50.9209 5.88207ZM44.3594 14.165L47.5536 14.1669L48.5027 11.8312L53.2966 11.8335L54.2431 14.1703L57.4511 14.1722L51.7287 0.482965L48.8795 0.481445L49.6381 2.29619L44.3594 14.165Z" fill="#C01818"/>
<path fill-rule="evenodd" clip-rule="evenodd" d="M58.7751 14.1735L61.5783 14.1751L61.5818 8.0313L63.4093 8.03282L63.4108 5.45547L61.5833 5.45433L61.5837 4.23615C61.5837 3.71331 61.9378 3.15817 62.5935 3.15855C62.9538 3.15893 63.1712 3.21972 63.3882 3.31168L63.7001 3.44467L64.8647 0.929637L64.529 0.793987C64.0081 0.582723 63.2826 0.506729 62.7767 0.506349C61.5053 0.505589 60.4579 0.916718 59.7458 1.6949C59.1243 2.37429 58.7817 3.31928 58.7809 4.35508L58.7801 5.45243L57.5426 5.45205L57.541 8.02978L58.779 8.03016L58.7751 14.1735Z" fill="#C01818"/>
<path fill-rule="evenodd" clip-rule="evenodd" d="M21.1934 0.402832V14.1525L24.2389 14.1544L24.2435 6.29353L27.1953 8.46924L30.1498 6.29353V14.1578L33.1911 14.1593L33.1988 0.402832L27.1976 4.88877L21.1934 0.402832Z" fill="#C01818"/>
<path fill-rule="evenodd" clip-rule="evenodd" d="M67.2756 7.75934C67.6417 6.82157 68.4314 6.27404 69.4516 6.27442C70.4825 6.2748 71.2872 6.81132 71.7139 7.76162L67.2756 7.75934ZM69.7206 3.88477C66.1926 3.88287 64.2867 6.53431 64.2852 9.0292C64.284 11.5248 66.1865 14.1774 69.7148 14.1793H69.7164H69.7187C71.3365 14.1622 72.8537 13.4327 74.0283 12.1176L71.7421 10.8838C71.156 11.4777 70.4442 11.7901 69.6584 11.7897C68.5072 11.7889 67.4863 11.0297 67.2193 10.0373L74.843 10.0414L74.8433 9.35635C74.8456 5.58438 71.8493 3.88629 69.7206 3.88477Z" fill="#C01818"/>
<path fill-rule="evenodd" clip-rule="evenodd" d="M78.7347 7.76683C79.1003 6.82868 79.8897 6.28114 80.9102 6.28152C81.9415 6.28228 82.7462 6.81842 83.173 7.76911L78.7347 7.76683ZM81.1792 3.89209C77.6508 3.89019 75.7457 6.54125 75.7441 9.03614C75.7426 11.5318 77.6447 14.1844 81.1738 14.1866H81.1753H81.1769C82.7955 14.1692 84.3127 13.4396 85.4869 12.1245L83.2007 10.8912C82.6142 11.4851 81.9028 11.7974 81.1173 11.797C79.9658 11.7963 78.9449 11.0371 78.6783 10.0446L86.3015 10.0484L86.3023 9.36368C86.3046 5.5917 83.3079 3.89323 81.1792 3.89209Z" fill="#C01818"/>
<path fill-rule="evenodd" clip-rule="evenodd" d="M85.9453 3.35645H87.1322V3.57569H86.6659V4.80642H86.4097V3.57569H85.9453V3.35645Z" fill="#C01818"/>
<path fill-rule="evenodd" clip-rule="evenodd" d="M87.4707 3.35645H87.8318L88.2362 4.4918H88.2404L88.6345 3.35645H88.9917V4.80642H88.7475V3.6874H88.7432L88.3372 4.80642H88.1256L87.7188 3.6874H87.715V4.80642H87.4707V3.35645Z" fill="#C01818"/>
<path fill-rule="evenodd" clip-rule="evenodd" d="M3.33978 12.1315V5.16431L7.78268 7.19678V3.83517L0.253906 0.391113V14.08L7.78268 17.5271V14.1651L3.33978 12.1315Z" fill="#C01818"/>
<path fill-rule="evenodd" clip-rule="evenodd" d="M12.2261 12.1315V5.16431L7.7832 7.19678V3.83517L15.312 0.391113V14.08L7.7832 17.5271V14.1651L12.2261 12.1315Z" fill="#C01818"/>
<path d="M94.287 2.18457V15.815" stroke="#C01818" stroke-linecap="square"/>
<path d="M106.84 5.43359L103.846 14H102.357L99.3633 5.43359H100.805L102.609 10.8008C102.664 10.957 102.723 11.1465 102.785 11.3691C102.852 11.5918 102.912 11.8164 102.967 12.043C103.025 12.2695 103.07 12.4707 103.102 12.6465C103.133 12.4707 103.176 12.2695 103.23 12.043C103.289 11.8164 103.35 11.5918 103.412 11.3691C103.475 11.1465 103.533 10.9551 103.588 10.7949L105.398 5.43359H106.84ZM109.201 7.51367V14H107.824V7.51367H109.201ZM108.521 5.0293C108.732 5.0293 108.914 5.08594 109.066 5.19922C109.223 5.3125 109.301 5.50781 109.301 5.78516C109.301 6.05859 109.223 6.25391 109.066 6.37109C108.914 6.48438 108.732 6.54102 108.521 6.54102C108.303 6.54102 108.117 6.48438 107.965 6.37109C107.816 6.25391 107.742 6.05859 107.742 5.78516C107.742 5.50781 107.816 5.3125 107.965 5.19922C108.117 5.08594 108.303 5.0293 108.521 5.0293ZM113.355 14.1172C112.582 14.1172 111.961 13.8359 111.492 13.2734C111.027 12.707 110.795 11.873 110.795 10.7715C110.795 9.6582 111.031 8.81641 111.504 8.24609C111.98 7.67578 112.607 7.39062 113.385 7.39062C113.713 7.39062 114 7.43555 114.246 7.52539C114.492 7.61133 114.703 7.72852 114.879 7.87695C115.059 8.02539 115.211 8.19141 115.336 8.375H115.4C115.381 8.25391 115.357 8.08008 115.33 7.85352C115.307 7.62305 115.295 7.41016 115.295 7.21484V4.88281H116.678V14H115.6L115.354 13.1152H115.295C115.178 13.3027 115.029 13.4727 114.85 13.625C114.674 13.7734 114.463 13.8926 114.217 13.9824C113.975 14.0723 113.688 14.1172 113.355 14.1172ZM113.742 12.998C114.332 12.998 114.748 12.8281 114.99 12.4883C115.232 12.1484 115.357 11.6387 115.365 10.959V10.7773C115.365 10.0508 115.248 9.49414 115.014 9.10742C114.779 8.7168 114.352 8.52148 113.73 8.52148C113.234 8.52148 112.855 8.72266 112.594 9.125C112.336 9.52344 112.207 10.0801 112.207 10.7949C112.207 11.5098 112.336 12.0566 112.594 12.4355C112.855 12.8105 113.238 12.998 113.742 12.998ZM121.236 7.39062C121.814 7.39062 122.311 7.50977 122.725 7.74805C123.139 7.98633 123.457 8.32422 123.68 8.76172C123.902 9.19922 124.014 9.72266 124.014 10.332V11.0703H119.684C119.699 11.6992 119.867 12.1836 120.188 12.5234C120.512 12.8633 120.965 13.0332 121.547 13.0332C121.961 13.0332 122.332 12.9941 122.66 12.916C122.992 12.834 123.334 12.7148 123.686 12.5586V13.6777C123.361 13.8301 123.031 13.9414 122.695 14.0117C122.359 14.082 121.957 14.1172 121.488 14.1172C120.852 14.1172 120.291 13.9941 119.807 13.748C119.326 13.498 118.949 13.127 118.676 12.6348C118.406 12.1426 118.271 11.5312 118.271 10.8008C118.271 10.0742 118.395 9.45703 118.641 8.94922C118.887 8.44141 119.232 8.05469 119.678 7.78906C120.123 7.52344 120.643 7.39062 121.236 7.39062ZM121.236 8.42773C120.803 8.42773 120.451 8.56836 120.182 8.84961C119.916 9.13086 119.76 9.54297 119.713 10.0859H122.666C122.662 9.76172 122.607 9.47461 122.502 9.22461C122.4 8.97461 122.244 8.7793 122.033 8.63867C121.826 8.49805 121.561 8.42773 121.236 8.42773ZM131.309 10.7422C131.309 11.2812 131.238 11.7598 131.098 12.1777C130.957 12.5957 130.752 12.9492 130.482 13.2383C130.213 13.5234 129.889 13.7422 129.51 13.8945C129.131 14.043 128.703 14.1172 128.227 14.1172C127.781 14.1172 127.373 14.043 127.002 13.8945C126.631 13.7422 126.309 13.5234 126.035 13.2383C125.766 12.9492 125.557 12.5957 125.408 12.1777C125.26 11.7598 125.186 11.2812 125.186 10.7422C125.186 10.0273 125.309 9.42188 125.555 8.92578C125.805 8.42578 126.16 8.04492 126.621 7.7832C127.082 7.52148 127.631 7.39062 128.268 7.39062C128.865 7.39062 129.393 7.52148 129.85 7.7832C130.307 8.04492 130.664 8.42578 130.922 8.92578C131.18 9.42578 131.309 10.0312 131.309 10.7422ZM126.604 10.7422C126.604 11.2148 126.66 11.6191 126.773 11.9551C126.891 12.291 127.07 12.5488 127.312 12.7285C127.555 12.9043 127.867 12.9922 128.25 12.9922C128.633 12.9922 128.945 12.9043 129.188 12.7285C129.43 12.5488 129.607 12.291 129.721 11.9551C129.834 11.6191 129.891 11.2148 129.891 10.7422C129.891 10.2695 129.834 9.86914 129.721 9.54102C129.607 9.20898 129.43 8.95703 129.188 8.78516C128.945 8.60938 128.631 8.52148 128.244 8.52148C127.674 8.52148 127.258 8.71289 126.996 9.0957C126.734 9.47852 126.604 10.0273 126.604 10.7422ZM141.094 11.668C141.094 12.1758 140.969 12.6133 140.719 12.9805C140.473 13.3477 140.117 13.6289 139.652 13.8242C139.191 14.0195 138.641 14.1172 138 14.1172C137.688 14.1172 137.389 14.0996 137.104 14.0645C136.818 14.0293 136.549 13.9785 136.295 13.9121C136.045 13.8418 135.816 13.7578 135.609 13.6602V12.3359C135.957 12.4883 136.346 12.627 136.775 12.752C137.205 12.873 137.643 12.9336 138.088 12.9336C138.451 12.9336 138.752 12.8867 138.99 12.793C139.232 12.6953 139.412 12.5586 139.529 12.3828C139.646 12.2031 139.705 11.9941 139.705 11.7559C139.705 11.502 139.637 11.2871 139.5 11.1113C139.363 10.9355 139.156 10.7754 138.879 10.6309C138.605 10.4824 138.262 10.3242 137.848 10.1562C137.566 10.043 137.297 9.91406 137.039 9.76953C136.785 9.625 136.559 9.45508 136.359 9.25977C136.16 9.06445 136.002 8.83398 135.885 8.56836C135.771 8.29883 135.715 7.98242 135.715 7.61914C135.715 7.13477 135.83 6.7207 136.061 6.37695C136.295 6.0332 136.623 5.76953 137.045 5.58594C137.471 5.40234 137.967 5.31055 138.533 5.31055C138.982 5.31055 139.404 5.35742 139.799 5.45117C140.197 5.54492 140.588 5.67773 140.971 5.84961L140.525 6.98047C140.174 6.83594 139.832 6.7207 139.5 6.63477C139.172 6.54883 138.836 6.50586 138.492 6.50586C138.195 6.50586 137.943 6.55078 137.736 6.64062C137.529 6.73047 137.371 6.85742 137.262 7.02148C137.156 7.18164 137.104 7.37305 137.104 7.5957C137.104 7.8457 137.164 8.05664 137.285 8.22852C137.41 8.39648 137.602 8.55078 137.859 8.69141C138.121 8.83203 138.457 8.98828 138.867 9.16016C139.34 9.35547 139.74 9.56055 140.068 9.77539C140.4 9.99023 140.654 10.248 140.83 10.5488C141.006 10.8457 141.094 11.2188 141.094 11.668ZM145.219 14.1172C144.605 14.1172 144.074 13.998 143.625 13.7598C143.176 13.5215 142.83 13.1562 142.588 12.6641C142.346 12.1719 142.225 11.5469 142.225 10.7891C142.225 10 142.357 9.35547 142.623 8.85547C142.889 8.35547 143.256 7.98633 143.725 7.74805C144.197 7.50977 144.738 7.39062 145.348 7.39062C145.734 7.39062 146.084 7.42969 146.396 7.50781C146.713 7.58203 146.98 7.67383 147.199 7.7832L146.789 8.88477C146.551 8.78711 146.307 8.70508 146.057 8.63867C145.807 8.57227 145.566 8.53906 145.336 8.53906C144.957 8.53906 144.641 8.62305 144.387 8.79102C144.137 8.95898 143.949 9.20898 143.824 9.54102C143.703 9.87305 143.643 10.2852 143.643 10.7773C143.643 11.2539 143.705 11.6562 143.83 11.9844C143.955 12.3086 144.141 12.5547 144.387 12.7227C144.633 12.8867 144.936 12.9688 145.295 12.9688C145.65 12.9688 145.969 12.9258 146.25 12.8398C146.531 12.7539 146.797 12.6426 147.047 12.5059V13.7012C146.801 13.8418 146.537 13.9453 146.256 14.0117C145.975 14.082 145.629 14.1172 145.219 14.1172ZM151.113 7.39062C151.934 7.39062 152.553 7.57227 152.971 7.93555C153.393 8.29883 153.604 8.86523 153.604 9.63477V14H152.625L152.361 13.0801H152.314C152.131 13.3145 151.941 13.5078 151.746 13.6602C151.551 13.8125 151.324 13.9258 151.066 14C150.812 14.0781 150.502 14.1172 150.135 14.1172C149.748 14.1172 149.402 14.0469 149.098 13.9062C148.793 13.7617 148.553 13.543 148.377 13.25C148.201 12.957 148.113 12.5859 148.113 12.1367C148.113 11.4688 148.361 10.9668 148.857 10.6309C149.357 10.2949 150.111 10.1094 151.119 10.0742L152.244 10.0332V9.69336C152.244 9.24414 152.139 8.92383 151.928 8.73242C151.721 8.54102 151.428 8.44531 151.049 8.44531C150.725 8.44531 150.41 8.49219 150.105 8.58594C149.801 8.67969 149.504 8.79492 149.215 8.93164L148.77 7.95898C149.086 7.79102 149.445 7.6543 149.848 7.54883C150.254 7.44336 150.676 7.39062 151.113 7.39062ZM152.238 10.9004L151.4 10.9297C150.713 10.9531 150.23 11.0703 149.953 11.2812C149.676 11.4922 149.537 11.7812 149.537 12.1484C149.537 12.4688 149.633 12.7031 149.824 12.8516C150.016 12.9961 150.268 13.0684 150.58 13.0684C151.057 13.0684 151.451 12.9336 151.764 12.6641C152.08 12.3906 152.238 11.9902 152.238 11.4629V10.9004ZM162.861 7.39062C163.588 7.39062 164.135 7.57812 164.502 7.95312C164.873 8.32812 165.059 8.92969 165.059 9.75781V14H163.682V10.0039C163.682 9.51172 163.586 9.14062 163.395 8.89062C163.203 8.64062 162.912 8.51562 162.521 8.51562C161.975 8.51562 161.58 8.69141 161.338 9.04297C161.1 9.39062 160.98 9.89648 160.98 10.5605V14H159.604V10.0039C159.604 9.67578 159.561 9.40234 159.475 9.18359C159.393 8.96094 159.266 8.79492 159.094 8.68555C158.922 8.57227 158.705 8.51562 158.443 8.51562C158.064 8.51562 157.762 8.60156 157.535 8.77344C157.312 8.94531 157.152 9.19922 157.055 9.53516C156.957 9.86719 156.908 10.2754 156.908 10.7598V14H155.531V7.51367H156.604L156.797 8.38672H156.873C157.006 8.16016 157.17 7.97461 157.365 7.83008C157.564 7.68164 157.785 7.57227 158.027 7.50195C158.27 7.42773 158.521 7.39062 158.783 7.39062C159.268 7.39062 159.676 7.47656 160.008 7.64844C160.34 7.81641 160.588 8.07422 160.752 8.42188H160.857C161.061 8.07031 161.344 7.81055 161.707 7.64258C162.07 7.47461 162.455 7.39062 162.861 7.39062ZM171.34 12.1484C171.34 12.5742 171.236 12.9336 171.029 13.2266C170.822 13.5195 170.52 13.7422 170.121 13.8945C169.727 14.043 169.242 14.1172 168.668 14.1172C168.215 14.1172 167.824 14.084 167.496 14.0176C167.172 13.9551 166.865 13.8574 166.576 13.7246V12.5352C166.885 12.6797 167.23 12.8047 167.613 12.9102C168 13.0156 168.365 13.0684 168.709 13.0684C169.162 13.0684 169.488 12.998 169.688 12.8574C169.887 12.7129 169.986 12.5215 169.986 12.2832C169.986 12.1426 169.945 12.0176 169.863 11.9082C169.785 11.7949 169.637 11.6797 169.418 11.5625C169.203 11.4414 168.887 11.2969 168.469 11.1289C168.059 10.9648 167.713 10.8008 167.432 10.6367C167.15 10.4727 166.938 10.2754 166.793 10.0449C166.648 9.81055 166.576 9.51172 166.576 9.14844C166.576 8.57422 166.803 8.13867 167.256 7.8418C167.713 7.54102 168.316 7.39062 169.066 7.39062C169.465 7.39062 169.84 7.43164 170.191 7.51367C170.547 7.5918 170.895 7.70703 171.234 7.85938L170.801 8.89648C170.508 8.76758 170.213 8.66211 169.916 8.58008C169.623 8.49414 169.324 8.45117 169.02 8.45117C168.664 8.45117 168.393 8.50586 168.205 8.61523C168.021 8.72461 167.93 8.88086 167.93 9.08398C167.93 9.23633 167.975 9.36523 168.064 9.4707C168.154 9.57617 168.309 9.68164 168.527 9.78711C168.75 9.89258 169.059 10.0234 169.453 10.1797C169.84 10.3281 170.174 10.4844 170.455 10.6484C170.74 10.8086 170.959 11.0059 171.111 11.2402C171.264 11.4746 171.34 11.7773 171.34 12.1484Z" fill="#C01818"/>
</svg>
