<?xml version="1.0" encoding="utf-8"?>
<!-- Generator: Adobe Illustrator 24.0.1, SVG Export Plug-In . SVG Version: 6.00 Build 0)  -->
<svg version="1.1" id="Layer_1" xmlns="http://www.w3.org/2000/svg" xmlns:xlink="http://www.w3.org/1999/xlink" x="0px" y="0px"
	 viewBox="0 0 100 100" style="enable-background:new 0 0 100 100;" xml:space="preserve">
<style type="text/css">
	.st0{fill:#6460F9;}
</style>
<path class="st0" d="M100,44H72.4l23.9-13.8l-6-10.4L66.4,33.6L80.2,9.7l-10.4-6L56,27.59V0H44v27.6L30.2,3.7l-10.4,6l13.8,23.9
	L9.7,19.8l-6,10.4L27.6,44H0V56h27.6L3.7,69.8l6,10.4l23.9-13.8L19.8,90.3l10.4,6L44,72.4V100H56V72.41l13.8,23.9l10.4-6L66.4,66.4
	l23.9,13.8l6-10.4L72.4,56H100V44z M50,65.23c-8.41,0-15.23-6.82-15.23-15.23c0-8.41,6.82-15.23,15.23-15.23S65.23,41.59,65.23,50
	C65.23,58.41,58.41,65.23,50,65.23z"/>
</svg>
